<svg id="Capa_1" data-name="Capa 1" xmlns="http://www.w3.org/2000/svg" viewBox="0 0 68.817 67.097">
  <defs>
    <style>
      .cls-1 {
        fill: #d3a4ff;
      }
    </style>
  </defs>
  <title>afteref</title>
  <path class="cls-1" d="M0,0V67.1H68.817V0ZM2.867,2.867H65.95V64.229H2.867ZM19.451,37.993,17.18,46.556c-.048.236-.142.325-.426.325h-4.21c-.284,0-.331-.095-.284-.426L20.4,17.974a8.579,8.579,0,0,0,.284-2.35c0-.189.095-.284.237-.284h6.009c.189,0,.284.047.331.284L36.389,46.5c.047.237,0,.378-.237.378H31.421c-.236,0-.378-.089-.426-.278L28.63,37.993H19.451ZM27.5,33.338c-.8-3.17-2.749-10.122-3.458-13.481h-.047c-.615,3.359-2.168,9.031-3.351,13.478Zm15.371,2.934c.048,3.88,1.892,6.482,6.245,6.482a11.133,11.133,0,0,0,4.677-.888c.189-.095.331-.047.331.189v3.6a.619.619,0,0,1-.284.568,12.791,12.791,0,0,1-5.765,1.088c-7.57,0-10.409-5.583-10.409-11.828,0-6.765,3.5-12.3,9.652-12.3,6.245,0,8.422,5.252,8.422,9.51a14.2,14.2,0,0,1-.237,3.028.4.4,0,0,1-.378.367,40.447,40.447,0,0,1-4.779.189H42.869Zm5.819-3.943a15.453,15.453,0,0,0,2.129-.047c0-.189.048-.352.048-.493,0-1.562-.757-4.427-3.738-4.427-2.744,0-3.927,2.413-4.211,4.968h5.772Z"/>
</svg>
