<svg id="Capa_1" data-name="Capa 1" xmlns="http://www.w3.org/2000/svg" viewBox="0 0 68.817 67.097">
  <defs>
    <style>
      .cls-1 {
        fill: #ff7f18;
      }
    </style>
  </defs>
  <title>aico</title>
  <path class="cls-1" d="M0,0V67.1H68.817V0ZM2.867,2.867H65.95V64.229H2.867ZM47.7,22.259a2.8,2.8,0,0,0,3.045-3,3,3,0,0,0-5.993,0A2.755,2.755,0,0,0,47.7,22.259Zm2.314,3.324h-4.6c-.242,0-.338.1-.338.338V49c0,.241.1.387.387.387h4.548c.29,0,.338-.1.338-.338V25.922C50.351,25.68,50.254,25.583,50.012,25.583Zm-33.668,23.8h4.3c.29,0,.387-.057.435-.3L23.4,40.3h9.377L35.2,49.134c.048.193.193.25.435.25h4.833c.242,0,.29-.145.242-.387L31.377,17.378c-.049-.242-.145-.29-.339-.29H24.9c-.145,0-.242.1-.242.29a9.14,9.14,0,0,1-.29,2.439L16.055,48.949C16.007,49.287,16.055,49.384,16.344,49.384Zm11.7-27.609h.048c.725,3.432,2.658,10.529,3.48,13.768H24.659C25.867,31,27.413,25.207,28.042,21.775Z"/>
</svg>
