<svg id="Capa_1" data-name="Capa 1" xmlns="http://www.w3.org/2000/svg" viewBox="0 0 68.817 67.097">
  <defs>
    <style>
      .cls-1 {
        fill: #ff4a19;
      }
    </style>
  </defs>
  <title>anico</title>
  <path class="cls-1" d="M0,0V67.1H68.817V0ZM2.867,2.867H65.95V64.229H2.867Zm9.1,46.517h4.3c.29,0,.387-.057.435-.3l2.32-8.783H28.4l2.417,8.831c.048.193.193.25.435.25h4.833c.242,0,.29-.145.242-.387L27,17.378c-.049-.242-.145-.29-.339-.29H20.521c-.145,0-.242.1-.242.29a9.14,9.14,0,0,1-.29,2.439L11.676,48.949C11.628,49.287,11.676,49.384,11.965,49.384Zm11.7-27.609h.048c.725,3.432,2.658,10.529,3.48,13.768H20.279C21.487,31,23.034,25.207,23.663,21.775Zm14.772,7.477c0-.3,0-1.358-.15-3.116,0-.2.063-.253.265-.353a27.293,27.293,0,0,1,9.357-2.011c4.274,0,8.948,1.658,8.948,9V48.554c0,.3-.1.4-.353.4H51.95c-.3,0-.4-.15-.4-.4V33.174c0-2.916-1.031-4.524-4.047-4.524a11.213,11.213,0,0,0-3.447.553V48.6c0,.2-.1.353-.3.353H38.787c-.253,0-.353-.1-.353-.353Z"/>
</svg>
