<svg id="Capa_1" data-name="Capa 1" xmlns="http://www.w3.org/2000/svg" viewBox="0 0 904.703 68">
  <defs>
    <style>
      .cls-1 {
        fill: #fff;
      }
    </style>
  </defs>
  <title>carpeta fondo text</title>
  <g>
    <path class="cls-1" d="M645.781,2.219V67.781H472.219V2.219H645.781M647,1H471V69H647V1Z" transform="translate(-1.649 -1)"/>
    <path class="cls-1" d="M255.637,2.363V67.637H18.189A15.2,15.2,0,0,1,3.011,52.459V17.541A15.2,15.2,0,0,1,18.189,2.363H255.637M257,1H18.189A16.589,16.589,0,0,0,1.649,17.541V52.459A16.589,16.589,0,0,0,18.189,69H257V1Z" transform="translate(-1.649 -1)"/>
    <path class="cls-1" d="M889.406,2.379a15.385,15.385,0,0,1,15.566,15.161V52.459a15.385,15.385,0,0,1-15.566,15.161H647.379V2.379H889.406m0-1.379H646V69H889.406a16.8,16.8,0,0,0,16.945-16.541V17.541A16.8,16.8,0,0,0,889.406,1Z" transform="translate(-1.649 -1)"/>
    <path class="cls-1" d="M470.668,2.332V67.668H257.332V2.332H470.668M472,1H256V69H472V1Z" transform="translate(-1.649 -1)"/>
  </g>
</svg>
