<svg id="Capa_1" data-name="Capa 1" xmlns="http://www.w3.org/2000/svg" viewBox="0 0 54.194 64.545">
  <defs>
    <style>
      .cls-1 {
        fill: #fff;
      }

      .cls-2 {
        fill: #82be10;
      }
    </style>
  </defs>
  <title>icico</title>
  <path class="cls-1" d="M23.244,55.355l-1.022.811a5.645,5.645,0,0,0-4.855-2.312A5.556,5.556,0,0,0,13.4,55.633a6.064,6.064,0,0,0,.088,8.093,5.99,5.99,0,0,0,8.752-.533l1,.778c-.107.145-.182.265-.275.37a6.74,6.74,0,0,1-4.574,2.291,7.53,7.53,0,0,1-3.63-.444,6.57,6.57,0,0,1-4.125-5.2,7.043,7.043,0,0,1,.394-4.245,6.686,6.686,0,0,1,6.069-4.225,6.968,6.968,0,0,1,4.6,1.245A6.054,6.054,0,0,1,23.244,55.355Z" transform="translate(-6.882 -2.137)"/>
  <path class="cls-1" d="M52.448,61.461a3.73,3.73,0,0,0,2.309,3.686c2.218.719,3.84-.158,4.968-2.127l1.036.563a4.9,4.9,0,0,1-2.181,2.428,5.2,5.2,0,0,1-4.729.084,4.423,4.423,0,0,1-2.18-2.331,5.538,5.538,0,0,1,.444-5.592,4.892,4.892,0,0,1,8.325.5,5.664,5.664,0,0,1,.635,2.782c-1.458.006-2.893,0-4.328,0ZM59.672,60.3a3.559,3.559,0,0,0-3.813-2.949A3.435,3.435,0,0,0,52.627,60.3Z" transform="translate(-6.882 -2.137)"/>
  <path class="cls-1" d="M33.446,56.106a5.038,5.038,0,0,1,4.993,4.514,5.425,5.425,0,0,1-1.323,4.367,4.738,4.738,0,0,1-4.094,1.6,5.094,5.094,0,0,1-4.606-5.076,5.4,5.4,0,0,1,1.22-3.6A4.672,4.672,0,0,1,33.446,56.106Zm.032,1.264a3.416,3.416,0,0,0-2.4.9,4.193,4.193,0,0,0-.813,5.27,3.683,3.683,0,0,0,6.333.05,4.254,4.254,0,0,0,.556-2.9A3.866,3.866,0,0,0,33.478,57.37Z" transform="translate(-6.882 -2.137)"/>
  <path class="cls-1" d="M47.747,66.306c0-.219,0-.394,0-.57,0-1.538,0-3.075-.012-4.613,0-.5-.032-1-.082-1.5a2.423,2.423,0,0,0-3.423-2.163,3.386,3.386,0,0,0-2.3,2.984,21.956,21.956,0,0,0-.1,2.277c-.016,1.18,0,2.359,0,3.578H40.6v-9.86a2.253,2.253,0,0,1,1.213-.027v1.654c.184-.195.29-.3.389-.413a4.392,4.392,0,0,1,2.4-1.473,3.4,3.4,0,0,1,4.211,2.788,13.95,13.95,0,0,1,.187,2.173C49.02,62.758,49,64.377,49,66c0,.094-.013.188-.021.31Z" transform="translate(-6.882 -2.137)"/>
  <path class="cls-1" d="M26.482,66.316H25.305V52.544h1.177Z" transform="translate(-6.882 -2.137)"/>
  <path class="cls-1" d="M8.488,66.316H7.323V56.385H8.456C8.549,56.74,8.58,65.582,8.488,66.316Z" transform="translate(-6.882 -2.137)"/>
  <path class="cls-1" d="M8.918,53.288a1.019,1.019,0,1,1-2.035.067,1.02,1.02,0,1,1,2.035-.067Z" transform="translate(-6.882 -2.137)"/>
  <polygon class="cls-2" points="17.064 19.641 8.127 19.641 22.497 4.402 22.497 13.884 24.162 13.207 24.162 0 4.097 21.418 16.539 21.418 17.064 19.641"/>
  <polygon class="cls-2" points="31.697 4.402 46.066 19.641 37.129 19.641 37.655 21.418 50.097 21.418 30.032 0 30.032 13.207 31.697 13.884 31.697 4.402"/>
  <polygon class="cls-2" points="22.497 43.429 8.127 28.191 17.064 28.191 16.539 26.413 4.097 26.413 24.162 47.832 24.162 34.625 22.497 33.948 22.497 43.429"/>
  <polygon class="cls-2" points="37.129 28.191 46.066 28.191 31.697 43.429 31.697 33.948 30.032 34.625 30.032 47.832 50.097 26.413 37.655 26.413 37.129 28.191"/>
  <path class="cls-2" d="M42.346,25.417a8.416,8.416,0,0,0-16.823,0,8.416,8.416,0,0,0,16.823,0Zm-8.411,6.392a6.4,6.4,0,1,1,6.615-6.392A6.506,6.506,0,0,1,33.935,31.809Z" transform="translate(-6.882 -2.137)"/>
</svg>
