<?xml version="1.0" encoding="utf-8"?>
<!-- Generator: Adobe Illustrator 23.0.3, SVG Export Plug-In . SVG Version: 6.00 Build 0)  -->
<svg version="1.1" id="Capa_1" xmlns="http://www.w3.org/2000/svg" xmlns:xlink="http://www.w3.org/1999/xlink" x="0px" y="0px"
	 viewBox="0 0 165.51 55.68" style="enable-background:new 0 0 165.51 55.68;" xml:space="preserve">
<style type="text/css">
	.st0{fill:#FF5A19;}
</style>
<path class="st0" d="M164.19,14.76c1.45,7.67-2.7,15.3-9.71,18.62c-7.15,3.39-16.29,2.23-22.08-3.25c-1.55-1.47-2.8-3.23-3.73-5.14
	c-0.48-0.99-0.88-2.03-1.11-3.11c-0.27-1.27-0.23-2.15-0.94-3.27c-1.16,1.07-1.78,2.64-2.53,4.02c-0.87,1.61-1.74,3.21-2.61,4.82
	c-1.7,3.15-3.4,6.29-5.11,9.43c-1.72,3.15-3.44,6.3-5.17,9.44c-0.86,1.56-1.73,3.12-2.6,4.68c-0.73,1.32-1.94,2.84-2.18,4.33
	c-4.84,0-9.67,0-14.51,0c-0.22-1.8,1.13-3.36,1.92-4.85c1.09-2.07,2.2-4.12,3.33-6.17c2.25-4.1,4.45-8.22,6.75-12.28
	c0.51-0.9,0.92-1.58,0.54-2.61c-0.34-0.96-1-1.87-1.49-2.76c-1.14-2.07-2.28-4.15-3.43-6.22c-2.27-4.12-4.56-8.22-6.69-12.41
	c-0.17,0.03-0.34,0.06-0.52,0.1c-0.4,2.26-0.2,4.67-0.2,6.97c0,2.4,0,4.8,0,7.21c0,2.49,0,4.99,0,7.48c0,1.18,0.61,3.95-0.85,4.51
	c-0.77,0.3-1.87,0.11-2.67,0.12c-1.16,0-2.31,0-3.47,0c-1.11,0-2.24,0.04-3.35-0.02c-1.07-0.06-1.99-0.46-3.08-0.23
	c-2.2,0.47-4.2,1.03-6.49,1c-2.05-0.03-4.1-0.31-6.05-0.97c-2.16-0.74-4.14-1.91-5.88-3.39c-1.87-1.59-3.05-3.61-4.57-5.49
	c-0.09,0.03-0.18,0.06-0.26,0.09c-0.36,2.23-0.13,4.46-0.1,6.71c0.01,0.73,0.16,1.64-0.54,2.1c-0.74,0.49-2.15,0.2-3,0.2
	c-2.41,0-4.83,0.03-7.24,0c-0.85-0.01-1.49,0-1.71-0.94c-0.24-1-0.03-2.25-0.03-3.27c0.01-2.41,0.01-4.82,0.01-7.23
	c0-2.09,0.27-4.4-0.27-6.43c-0.43-1.61-1.69-3.47-3.48-3.67c-1.83-0.21-3.35,1.4-3.99,2.96c-0.78,1.91-0.56,4.13-0.55,6.15
	c0.02,2.38,0.07,4.75,0.1,7.13c0.02,1.19,0.07,2.38,0.04,3.57c-0.02,0.7-0.02,1.35-0.75,1.65c-0.84,0.34-2.19,0.1-3.07,0.1
	c-1.16,0-2.31,0-3.47,0c-1.15,0-2.31,0.03-3.47-0.01c-0.63-0.02-1.3-0.02-1.64-0.64c-0.4-0.73-0.15-2.01-0.15-2.78
	c0-1.2,0-2.4,0-3.61c0-2.4,0-4.81,0-7.21c-0.01-1.97,0.14-3.96-1.14-5.6c-1.09-1.41-2.8-2.25-4.47-1.3
	c-1.67,0.94-2.21,2.76-2.26,4.56c-0.14,4.54-0.36,9.35,0.09,13.87c0.07,0.7,0.25,1.58-0.23,2.19c-0.56,0.72-1.59,0.54-2.4,0.53
	c-2.31-0.03-4.62-0.01-6.93-0.01c-1.33,0-3.49,0.51-3.77-1.24c-0.36-2.23-0.01-4.78-0.01-7.04c0-4.85,0-9.7,0-14.54
	c0-2.42,0-4.85,0-7.27c0-1.83,0.31-2.99,2.37-2.96c2.13,0.02,4.34-0.09,6.46,0.06c1.17,0.08,2.17,0.53,3.26,0.8
	c1.28,0.33,2.41-0.74,3.47-1.28c1.5-0.77,3.11-0.54,4.66-0.12c1.53,0.42,2.93,1.01,4.28,1.84c0.82,0.5,1.61,1.06,2.37,1.64
	c0.38,0.29,0.87,0.92,1.37,0.88c0.88-0.06,2.15-1.45,2.85-1.94c1.35-0.94,2.82-1.87,4.45-2.22c6.22-1.36,12.71,1.88,15.98,7.18
	c0.9,1.46,1.46,3.07,2.29,4.55c0.92-1.54,1.63-3.26,2.76-4.66c0.94-1.17,2.06-2.18,3.26-3.07c2.91-2.16,6.35-3.61,9.91-4.27
	c1.55-0.29,3.39-0.67,4.88-0.13c1.3,0.47,2.64,1.22,3.99,1.48c1.03,0.2,1.47-0.24,2.37-0.56c0.47-0.17,0.95-0.14,1.45-0.14
	c0.74,0.01,1.48,0.02,2.22,0.03c5.2,0.07,10.4,0.11,15.6,0.14c1.11,0.01,2.65-0.06,3.59,0.62c0.65,0.47,0.99,1.37,1.39,2.04
	c0.62,1.02,1.25,2.04,1.89,3.06c1.19,1.91,2.28,4.23,3.77,5.92c1.52,1.73,2.76-1.71,3.37-2.8c1.32-2.33,2.57-4.71,3.94-7.01
	c1.21-2.04,2.57-2.04,4.78-1.91c2.55,0.15,5.1,0.06,7.66-0.03c0.74-0.03,2.14-0.37,2.8,0.11c0.59,0.44,0.35,1.25,0.4,1.89
	c2.77-0.94,5.6-2.51,8.55-2.74c1.63-0.13,3.32,0.1,4.92,0.41c4.48,0.85,9.1,2.71,12.31,6.04C162.63,9.22,163.91,11.87,164.19,14.76z
	 M68.22,17.97c0,2.74,2.62,5.48,5.41,5.34c2.75-0.14,5.26-3.03,5.01-5.76c-0.25-2.72-2.69-5.07-5.48-4.86
	C70.41,12.91,68.32,15.25,68.22,17.97z M150.79,18.04c0-2.77-2.1-5.46-5.03-5.4c-2.82,0.06-5.22,2.9-5.03,5.67
	c0.17,2.46,2.29,4.77,4.79,4.98C148.27,23.52,151.21,20.86,150.79,18.04z"/>
</svg>
