<svg id="Capa_1" data-name="Capa 1" xmlns="http://www.w3.org/2000/svg" viewBox="0 0 224.153 47">
  <defs>
    <style>
      .cls-1 {
        fill: #f78224;
      }
    </style>
  </defs>
  <title>LogoPopeyes</title>
  <g>
    <path class="cls-1" d="M219.067,18.689c-3.506-2.333-12.808-7.815-6.4-10.512,2.3-.966,5.978-.315,9.076,2.106l2.4,1.643L223.9,2.935a26.283,26.283,0,0,0-3.449-1.289c-7.578-2.115-18.245-3.129-20.7,6.285-1,3.828,1.2,6.7,3.628,9.44,1.915,2.168,9.562,6.367,8.832,9.938-.745,3.643-9.245-.015-13.491-1.841l-.854-.368.336,9.64.933.432a57.865,57.865,0,0,0,6.885,2.6c5.14,1.637,11.928,1.51,15.848-3.7A10.583,10.583,0,0,0,219.067,18.689Z" transform="translate(0 0)"/>
    <path class="cls-1" d="M167.985,2.549l-11.891.009.006,5.457c0,6.22-2.829,9.665-5.655,9.7-2.81.038-5.614-3.3-5.656-9.961l-.029-5.068h-10.7c0,11.307,2.1,20.9,10.581,23.828l-.014,14.895,11.211-.006-.019-14.616C165.023,24.235,167.985,14.41,167.985,2.549Z" transform="translate(0 0)"/>
    <path class="cls-1" d="M1.108,3.105H0V13.53l3.735.024V41.262l11.133.028-.016-10.777c5.539.13,9.665-.587,12.293-2.193,5.5-3.365,8.808-10.181,5.6-16.2C27.387,2.05,12.289,3.105,1.108,3.105ZM17.231,22.516h-2.4V13.721h2.361c2.276,0,4.674,1.1,5.209,3.462C23.109,20.307,20.151,22.516,17.231,22.516Z" transform="translate(0 0)"/>
    <path class="cls-1" d="M51.8,0C43.18,0,36.189,8.62,36.189,19.253S43.18,38.506,51.8,38.506s15.614-8.619,15.614-19.253S60.427,0,51.8,0Zm-2.22,29.5c-3.845,0-6.96-3.453-6.96-7.71s3.116-7.71,6.96-7.71,6.961,3.453,6.961,7.71S53.427,29.5,49.583,29.5Z" transform="translate(0 0)"/>
    <path class="cls-1" d="M69.632,3.242H68.522V13.667l3.736.025V41.4l11.133.026L83.377,30.65c5.536.13,9.664-.586,12.291-2.193,5.5-3.366,8.808-10.181,5.6-16.2C95.908,2.189,80.811,3.242,69.632,3.242ZM85.726,22.684h-2.4v-8.8h2.361c2.275,0,4.675,1.1,5.209,3.462C91.605,20.473,88.646,22.684,85.726,22.684Z" transform="translate(0 0)"/>
    <path class="cls-1" d="M180.619,7.383c-8.856,0-15.583,8.713-15.583,19.46S172.008,46.926,180.612,47c6.959.061,11.272-3.551,13.551-8.858l-3.614-3.023-.984.79c-4.052,3.256-14.2,2.359-14-5.169l.016-.64,20.516.006v-.427c0-1.755.139-3.511.025-5.264C195.5,14.813,191.013,7.385,180.619,7.383Zm-3.991,15.739c.013-3.994,1.865-7.1,6.09-7.232,3.859-.12,6.062,3.237,6.051,7.232Z" transform="translate(0 0)"/>
    <path class="cls-1" d="M119.381,6.831c-8.853,0-15.581,8.712-15.581,19.46s6.97,20.086,15.575,20.159c6.959.059,11.272-3.552,13.55-8.86l-3.613-3.023-.984.792c-4.051,3.255-14.2,2.358-14-5.17l.016-.64,20.518.007v-.43c0-1.754.139-3.509.025-5.262C134.261,14.262,129.777,6.834,119.381,6.831ZM115.42,22.543c.013-3.994,1.865-7.1,6.09-7.232,3.859-.12,6.061,3.239,6.049,7.232Z" transform="translate(0 0)"/>
  </g>
</svg>
