<svg id="Capa_1" data-name="Capa 1" xmlns="http://www.w3.org/2000/svg" viewBox="0 0 156 49.853">
  <defs>
    <style>
      .cls-1 {
        fill: #fff;
      }
    </style>
  </defs>
  <title>LogoWunderman</title>
  <g>
    <path class="cls-1" d="M8.8,0H5.307c-.022,1.205-.046,2.41-.064,3.616-.007.421,0,.843,0,1.351H0V8.237H5.256v4.927H8.84V8.3H14V4.944H8.8Z"/>
    <path class="cls-1" d="M154.1,13.2V24.3a1.534,1.534,0,0,1-.5-.532q-3.159-5.033-6.321-10.064c-.123-.195-.3-.468-.493-.495a10.693,10.693,0,0,0-1.494-.024V28.083h1.778V16.78c.209.31.313.455.407.605q2.951,4.691,5.9,9.384c.892,1.422.887,1.425,2.63,1.334V13.2Z"/>
    <path class="cls-1" d="M30.537,13.2a.668.668,0,0,0-.468.395c-.457,2.237-.881,4.48-1.314,6.721q-.389,2.01-.783,4.019l-.1-.006L25.589,13.184c-.583,0-1.139.017-1.694-.006-.368-.015-.518.092-.589.454-.5,2.538-1.024,5.07-1.545,7.6-.211,1.028-.43,2.055-.646,3.082l-.1-.013L18.874,13.23h-1.84L20.081,28.1H22l2.423-11.084.152.017L27,28.124c.473,0,.9-.029,1.328.008.464.041.622-.127.706-.55.652-3.269,1.334-6.533,2-9.8.31-1.513.613-3.028.931-4.6A11.685,11.685,0,0,0,30.537,13.2Z"/>
    <path class="cls-1" d="M77.04,34.657a.853.853,0,0,0-.985.558c-.464.953-.993,1.878-1.5,2.812-.7,1.286-1.4,2.571-2.141,3.937-.164-.272-.284-.456-.388-.647-1.117-2.068-2.226-4.139-3.356-6.2a.857.857,0,0,0-.511-.43,13.506,13.506,0,0,0-1.568-.02v14.9h1.78V38.443a1.375,1.375,0,0,1,.388.488c.95,1.785,1.912,3.565,2.837,5.362a.757.757,0,0,0,.813.417.743.743,0,0,0,.8-.422c.913-1.78,1.865-3.542,2.806-5.309.087-.164.2-.318.3-.476l.119.038V49.557H78.2V34.665A11.066,11.066,0,0,1,77.04,34.657Z"/>
    <path class="cls-1" d="M122.862,13.175a.906.906,0,0,0-1.027.589c-.874,1.685-1.788,3.353-2.69,5.026-.287.532-.584,1.06-.923,1.676-.16-.267-.279-.448-.381-.638-1.117-2.068-2.227-4.138-3.354-6.2-.095-.173-.285-.4-.453-.42a15.758,15.758,0,0,0-1.608-.02v14.9H114.2V16.982a1.454,1.454,0,0,1,.393.506c.9,1.7,1.8,3.39,2.687,5.093a.924.924,0,0,0,.934.642.892.892,0,0,0,.922-.656c.172-.369.375-.725.567-1.085l2.4-4.517.132.024V28.073H124V13.184A10.057,10.057,0,0,1,122.862,13.175Z"/>
    <path class="cls-1" d="M137.975,46.038c-.194-.292-.308-.457-.414-.626q-3.225-5.137-6.455-10.271c-.12-.19-.313-.444-.5-.471a10.678,10.678,0,0,0-1.48-.022V49.571h1.766V38.2c.24.353.379.544.5.743q3.192,5.085,6.388,10.168c.12.19.319.439.513.467a10.627,10.627,0,0,0,1.469.022V34.694h-1.786Z"/>
    <path class="cls-1" d="M60.3,24.6c-.259-.4-.418-.629-.568-.868Q56.572,18.7,53.408,13.666c-.119-.189-.323-.43-.518-.458a10.3,10.3,0,0,0-1.434-.022V28.08h1.758V16.942a2.857,2.857,0,0,1,.637.77q3.125,4.981,6.256,9.958a.936.936,0,0,0,.531.432,10.3,10.3,0,0,0,1.413.02V13.209H60.3Z"/>
    <path class="cls-1" d="M72.387,28.123A5.006,5.006,0,0,0,77.666,23.2q0-2.541,0-5.082a5,5,0,0,0-5.214-4.929c-1.573-.009-3.146,0-4.719,0-.183,0-.367.028-.57.045V28.124C68.944,28.124,70.666,28.126,72.387,28.123ZM69,14.9c1.362,0,2.679-.074,3.983.019A3.168,3.168,0,0,1,75.846,17.9c.03,1.836.035,3.673,0,5.509a3.227,3.227,0,0,1-3.25,3.01c-1.182.018-2.364,0-3.595,0Z"/>
    <path class="cls-1" d="M105.229,21.6a4.4,4.4,0,0,0,2.149-5.133,4.787,4.787,0,0,0-4.786-3.287c-1.1,0-2.2,0-3.3,0H97.425V28.091H99.2V22.269c1.182,0,2.282.018,3.38-.009a.7.7,0,0,1,.767.464c.787,1.657,1.6,3.3,2.422,4.944.088.176.273.416.436.432.547.054,1.1.021,1.764.021l-3.069-6.3C105.024,21.738,105.124,21.667,105.229,21.6Zm-2.447-1.035c-1.119.018-2.238,0-3.357,0a1.082,1.082,0,0,1-.213-.051V14.985a31.35,31.35,0,0,1,4.329.043,2.7,2.7,0,0,1,2.2,3.056A3,3,0,0,1,102.782,20.569Z"/>
    <path class="cls-1" d="M44.474,41.268H37.559V34.683H35.8v14.88h1.812V43.034h6.894v6.538h1.752v-14.9H44.474Z"/>
    <path class="cls-1" d="M92.672,26.415H84.8V21.432h7.061V19.793H84.8V14.865h7.875V13.213H82.967V28.09h9.705Z"/>
    <path class="cls-1" d="M56.745,34.463a5.011,5.011,0,0,0-5.18,4.715q-.023,2.966,0,5.932A5.2,5.2,0,0,0,61.916,45.1c.008-.989,0-1.977,0-2.966s.007-1.977,0-2.966A4.97,4.97,0,0,0,56.745,34.463Zm3.353,10.7a3.2,3.2,0,0,1-3.473,2.965,3.279,3.279,0,0,1-3.268-3.2c-.021-.927,0-1.855,0-2.783,0-.908-.012-1.815,0-2.723a3.328,3.328,0,0,1,3.327-3.29,3.26,3.26,0,0,1,3.424,3.044C60.191,41.165,60.19,43.166,60.1,45.158Z"/>
    <path class="cls-1" d="M123.382,39.048a5.2,5.2,0,0,0-10.354.19q-.015,2.906,0,5.812a4.973,4.973,0,0,0,4.481,4.734c2.754.287,5.266-1.278,5.728-3.731a29.267,29.267,0,0,0,.23-3.916l-.077,0C123.389,41.105,123.427,40.075,123.382,39.048Zm-1.795,5.916a3.38,3.38,0,0,1-6.748-.025q-.008-2.813,0-5.626a3.38,3.38,0,0,1,6.746-.036c.018.968,0,1.936,0,2.9C121.589,43.108,121.6,44.036,121.587,44.964Z"/>
    <path class="cls-1" d="M105.392,41.963c-.944-.435-1.942-.768-2.91-1.159-.691-.279-1.4-.539-2.051-.879a1.743,1.743,0,0,1-1.043-1.745,1.825,1.825,0,0,1,1.294-1.663,5.521,5.521,0,0,1,1.748-.367c1.616-.025,3.392.485,3.392,2.644,0,.032.043.064.083.119h1.689a3.771,3.771,0,0,0-1.069-3.033c-1.539-1.543-4.779-1.9-6.91-.783a3.458,3.458,0,0,0-.319,6.164,9.892,9.892,0,0,0,1.6.773c1.261.518,2.55.978,3.8,1.522a1.984,1.984,0,0,1,1.318,2.041,2.308,2.308,0,0,1-1.518,2.146,5.32,5.32,0,0,1-4.08,0,2.164,2.164,0,0,1-1.478-2.027c-.007-.138-.024-.276-.038-.43H97.175a3.7,3.7,0,0,0,2.055,3.793,7.112,7.112,0,0,0,5.509.4,3.983,3.983,0,0,0,3.072-3.663A3.686,3.686,0,0,0,105.392,41.963Z"/>
    <path class="cls-1" d="M135.763,14.141c-.327-.959-.331-.921-1.513-.972a.862.862,0,0,0-1.032.694c-1.03,3.118-2.1,6.223-3.163,9.332-.548,1.609-1.1,3.217-1.684,4.929a11.771,11.771,0,0,1,1.272.009c.516.061.717-.162.849-.591.291-.943.626-1.875.944-2.812h6.022c.348,1,.686,2,1.045,2.988.054.149.2.372.315.381.541.041,1.088.018,1.69.018-.069-.219-.1-.333-.14-.446Q138.067,20.906,135.763,14.141Zm-3.729,8.838,2.416-7.072,2.42,7.072Z"/>
    <path class="cls-1" d="M46.363,13.872v-.639H44.551v.649c0,3.269,0,6.539,0,9.808a2.741,2.741,0,0,1-2.126,2.781c-2.837.826-4.883-.559-4.883-3.3q0-4.632,0-9.263v-.684H35.752c-.01.211-.024.369-.024.528q0,4.874,0,9.747c0,2.724,1.592,4.474,4.474,4.8,3.442.391,6.266-1.424,6.178-4.98C46.3,20.169,46.363,17.02,46.363,13.872Z"/>
    <path class="cls-1" d="M88.8,34.675c-1.786-.069-3.576-.02-5.365-.019a.494.494,0,0,0-.165.065V49.559H85.05V43.737c1.3,0,2.5.035,3.7-.007a4.528,4.528,0,1,0,.042-9.054Zm-.21,7.372c-1.156.024-2.313,0-3.51,0V36.385a38.215,38.215,0,0,1,3.943.027,2.786,2.786,0,0,1,2.542,3.055A2.938,2.938,0,0,1,88.585,42.048Z"/>
    <path class="cls-1" d="M17.918,36.349h5.665V49.57h1.834V36.327h5.633V34.688H17.918Z"/>
  </g>
</svg>
