<svg id="Capa_1" data-name="Capa 1" xmlns="http://www.w3.org/2000/svg" viewBox="0 0 270.037 42">
  <defs>
    <style>
      .cls-1 {
        fill: #fff;
      }
    </style>
  </defs>
  <title>LogoLIMA</title>
  <g>
    <path class="cls-1" d="M97.187,1.309A24.218,24.218,0,0,0,94.749.991C88.944.6,83.3.777,79.01,5.893a10.826,10.826,0,0,0-6.473-4.32,31.63,31.63,0,0,0-13.018-.151,9.515,9.515,0,0,0-7.763,7.133,17.669,17.669,0,0,0-.955,4.631c-.086,6.168-.143,12.343.1,18.5A42.2,42.2,0,0,0,52.4,39.869,2.547,2.547,0,0,0,54.082,41.5c2.143.184,4.317-2.643,4.054-4.8-.574-4.706-1.321-9.415-1.479-14.14a64.284,64.284,0,0,1,.906-11.058,4.9,4.9,0,0,1,4.117-4.392,34.006,34.006,0,0,1,7.787-.181A5.563,5.563,0,0,1,74.381,11.2a27.763,27.763,0,0,1,1.3,6.875c.178,6.119.063,12.246.064,18.37,0,2.694.79,3.865,3.261,4.831,1.7.664,2.347.39,2.517-1.458.286-3.1.448-6.209.515-9.318.105-4.865-.022-9.737.147-14.6.256-7.36,2.835-9.646,10.146-9.288C96.272,6.808,98.7,8.4,99.6,12.241a45.737,45.737,0,0,1,1.248,10.36c0,5.122-.564,10.243-.838,15.367a3.5,3.5,0,0,0,3.464,3.582c1.906.169,1.849-1.468,2.3-2.618a1.166,1.166,0,0,0,.058-.322c.377-4.238.916-8.469,1.088-12.715.224-5.51.33-11.043-1.121-16.455C104.6,4.955,101.859,2.107,97.187,1.309Z" transform="translate(-4.042 -0.629)"/>
    <path class="cls-1" d="M132.953.973c-4.342-.372-8.731-.262-13.1-.227a25.216,25.216,0,0,0-5.184.656c-1.767.39-2.133,1.533-1.113,3.046a5.455,5.455,0,0,0,5.383,2.4c3.537-.265,7.086-.5,10.63-.514,3.935-.015,6.086,1.763,6.517,5.7a98.443,98.443,0,0,1,.531,12.258,37.526,37.526,0,0,1-1.133,7.917c-.71,3.017-2.428,4.293-5.489,4.471a43.667,43.667,0,0,1-4.915-.017c-4.546-.249-6.267-2.131-6.181-6.649.044-2.295.809-3.327,3.121-3.661a51.754,51.754,0,0,1,6.036-.406,5.6,5.6,0,0,0,4.5-2.308c1.186-1.533.773-2.8-1.125-3.04a41.887,41.887,0,0,0-14.345.332c-2.747.6-4.09,2.27-4.243,5.1a46.091,46.091,0,0,0,.033,6.063c.445,5.681,3.206,8.927,8.523,9.908a33.606,33.606,0,0,0,12.058-.111c4.62-.818,7.39-3.393,8.109-7.978.683-4.357,1.135-8.751,1.581-12.278-.361-4.178-.544-7.453-.947-10.7C141.444,4.862,138.418,1.441,132.953.973Z" transform="translate(-4.042 -0.629)"/>
    <path class="cls-1" d="M204.1,1.237A60.908,60.908,0,0,0,193.853.958c-5.042.112-8.178,2.621-9.019,7.6-.742,4.389-.96,8.866-1.37,12.914.359,4.246.491,8.071,1.048,11.834.732,4.944,3.367,7.888,8.186,8.519a50.335,50.335,0,0,0,11.706.045c4.14-.436,6.785-3.146,7.7-7.239a54.665,54.665,0,0,0,1.052-7.259,70.459,70.459,0,0,0-.4-17.3C211.9,4.794,209.425,2.028,204.1,1.237Zm2.737,28.933c-.844,6.025-4.247,7.159-9.783,6.667-4.546-.4-6.931-3.236-7.174-8.633a136,136,0,0,1,.291-15.813c.308-4.294,2.641-6.083,6.981-6.142.71-.01,1.421-.011,2.131-.008,4.881.017,7.372,2.255,7.818,7.133.233,2.549.335,5.11.527,8.17C207.4,24.1,207.259,27.155,206.837,30.169Z" transform="translate(-4.042 -0.629)"/>
    <path class="cls-1" d="M273.142,10.65c-.748-5.707-3.389-8.789-8.756-9.505a44.373,44.373,0,0,0-11.23-.029c-5.088.633-7.456,3.1-8.259,8.126a42.087,42.087,0,0,0-.316,8.6,7.3,7.3,0,0,0,5.471,7.006c4.107,1.317,8.328.832,12.521.668a3.059,3.059,0,0,0,1.094-.331,1.668,1.668,0,0,0,1.074-2.353c-.573-1.568-1.765-2.43-3.825-2.5-1.53-.052-3.067.032-4.594-.053-3.686-.2-5.455-1.37-5.921-4.237a16.975,16.975,0,0,1,.058-5.035,4.952,4.952,0,0,1,4.312-4.354,36.637,36.637,0,0,1,6.024-.395c3.634-.037,5.6,1.532,6.4,5.059,1.106,4.913.778,9.9.489,14.854a26.431,26.431,0,0,1-1.207,6.066c-.79,2.6-2.52,4.424-5.4,4.51-2.656.079-5.32-.162-7.981-.2a24.98,24.98,0,0,0-5.022.17,3.287,3.287,0,0,0-2.531,3.239c.186,1.613,1.573,1.7,2.7,1.865a46.675,46.675,0,0,0,15.635-.057c5.33-1.011,8.339-4.431,9.232-9.586.6-3.477.668-7.046.968-10.518C273.772,17.924,273.616,14.266,273.142,10.65Z" transform="translate(-4.042 -0.629)"/>
    <path class="cls-1" d="M175.344,34.846c-1.744.44-3.456,1.045-5.222,1.35-4.31.745-8.649,1.226-12.989.189-2.417-.578-2.9-1.853-1.219-3.712a26.484,26.484,0,0,1,4.353-3.7c3.789-2.687,7.789-5.094,11.453-7.936,3.629-2.815,6.713-6.028,6.009-11.379-.565-4.295-2.433-6.958-6.658-8.091A27.316,27.316,0,0,0,159.716.961c-8.177,1.268-10.634,6.279-10.334,13.379.075,1.764,1.313,2.426,3.02,1.884,1.927-.612,2.825-1.888,2.884-4.253a4.81,4.81,0,0,1,3.048-4.65,14.553,14.553,0,0,1,10.716-.357,4.01,4.01,0,0,1,2.285,6.218,13.28,13.28,0,0,1-3.572,3.976c-3.962,2.815-8.139,5.327-12.145,8.083a35.9,35.9,0,0,0-4.744,4c-3.463,3.4-2.177,10.914,3.862,12.129,2.979.6,6.022.885,8.208,1.195a61.661,61.661,0,0,0,6.742-.574c2.978-.608,5.912-1.453,8.826-2.328a2.121,2.121,0,0,0,1.3-1.428C179.907,36.224,177.328,34.346,175.344,34.846Z" transform="translate(-4.042 -0.629)"/>
    <path class="cls-1" d="M25.838,36.453a54.731,54.731,0,0,1-13.89-.1,1.379,1.379,0,0,1-1.426-1.576c-.086-5.081-.369-10.164-.3-15.242.064-4.748.514-9.491.729-14.239.086-1.91-2.205-3.978-4.363-4.086C5.3,1.142,4.773,1.973,4.495,4.52c-.024.217-.031.437-.039.655-.149,3.877-.438,7.754-.412,11.63.04,5.95.172,11.906.514,17.845.175,3.035,1.9,5.045,5.016,5.934a57.457,57.457,0,0,0,14.089,2.044c2.174-.189,4.365-.271,6.518-.6,1.785-.273,2.225-1.353,1.474-3C30.548,36.6,29.185,36.017,25.838,36.453Z" transform="translate(-4.042 -0.629)"/>
    <path class="cls-1" d="M236.254,1.553c-1.581-.836-3.205-.2-4.6.788s-2.732,2-4.058,3.052c-3.083,2.444-6.164,4.891-9.187,7.409a2.1,2.1,0,0,0-.75,1.69,3.139,3.139,0,0,0,4.91,1.561c2.4-1.805,4.663-3.786,6.994-5.681.573-.466,1.181-.89,2.082-1.566,0,.993.036,1.532-.006,2.064-.167,2.117-.484,4.23-.515,6.348-.076,5.192-.125,10.389.019,15.578a61.47,61.47,0,0,0,.937,7.441,1.646,1.646,0,0,0,2.111,1.495,4.114,4.114,0,0,0,3.666-5.095,69.409,69.409,0,0,1-.834-18.407c.337-4.071.713-8.14,1-12.214C238.138,4.286,237.954,2.452,236.254,1.553Z" transform="translate(-4.042 -0.629)"/>
    <path class="cls-1" d="M40.281,1.5c-1.519-.182-2.156.561-2.607,3.044a4.177,4.177,0,0,0-.059.488q-.536,8.577-1.068,17.154l.468.013c0,3.548-.095,7.1.035,10.643a35.519,35.519,0,0,0,.835,6.48c.236,1.048,1.078,2.706,1.729,2.746a5.153,5.153,0,0,0,3.351-1.544,4.044,4.044,0,0,0,.863-2.8c-.189-6.216-.673-12.428-.718-18.643-.032-4.466.453-8.938.738-13.4A4.227,4.227,0,0,0,40.281,1.5Z" transform="translate(-4.042 -0.629)"/>
  </g>
</svg>
