<svg id="Capa_1" data-name="Capa 1" xmlns="http://www.w3.org/2000/svg" viewBox="0 0 133.806 51.706">
  <defs>
    <style>
      .cls-1 {
        fill: #fff;
      }
    </style>
  </defs>
  <title>LogoNALM</title>
  <g>
    <path class="cls-1" d="M45.629,49.357c.06-.089.387.015.357.119l-.015.045C45.48,50.9,44.915,51.6,44.29,51.6q-1,0-.981-1.918c-.342,1.353-.907,2.022-1.71,2.022-.967,0-1.561-.981-1.561-2.245a3.766,3.766,0,0,1,.714-2.275,2.308,2.308,0,0,1,1.963-1c.714,0,1.264.3,1.279.7,0,.282-.282.476-.684.431-.074-.4-.3-.61-.639-.61-.446,0-.8.327-1.085.967a4.818,4.818,0,0,0-.416,1.977c0,.892.238,1.532.669,1.532.372,0,.7-.461.981-1.4a6.232,6.232,0,0,0,.357-2.156c.55-.119,1.011.074,1.026.476,0,.045-.03.357-.089.922a8.415,8.415,0,0,0-.045,1.472c.03.416.149.625.342.625s.431-.193.654-.565a6.828,6.828,0,0,0,.55-1.16Z"/>
    <path class="cls-1" d="M52.333,49.357c.059-.089.387.015.357.119l-.015.045c-.416,1.189-1.145,2.171-2.141,2.171a1.636,1.636,0,0,1-1.5-1.353,8.971,8.971,0,0,1-.327-2.543,23.179,23.179,0,0,1,.416-4.148c.3-1.621.981-2.825,1.888-2.825.639,0,.937.565.937,1.442a7.686,7.686,0,0,1-.654,2.87,9.65,9.65,0,0,1-1.561,2.647q0,3.256,1.071,3.256a1.174,1.174,0,0,0,.907-.55,3.222,3.222,0,0,0,.61-1.086Zm-2.156-6.408a21.512,21.512,0,0,0-.431,4,9.121,9.121,0,0,0,1.189-2.379,7.8,7.8,0,0,0,.476-2.439c0-.58-.134-.877-.387-.877Q50.556,41.253,50.177,42.948Z"/>
    <path class="cls-1" d="M57.849,49.357c.06-.089.387.015.357.119l-.015.045C57.7,50.9,57.135,51.6,56.511,51.6q-1,0-.981-1.918c-.342,1.353-.907,2.022-1.71,2.022-.967,0-1.561-.981-1.561-2.245a3.766,3.766,0,0,1,.714-2.275,2.308,2.308,0,0,1,1.963-1c.714,0,1.264.3,1.279.7,0,.282-.282.476-.684.431-.074-.4-.3-.61-.639-.61-.446,0-.8.327-1.085.967a4.818,4.818,0,0,0-.416,1.977c0,.892.238,1.532.669,1.532.372,0,.7-.461.981-1.4a6.232,6.232,0,0,0,.357-2.156c.55-.119,1.011.074,1.026.476,0,.045-.03.357-.089.922a8.415,8.415,0,0,0-.045,1.472c.03.416.149.625.342.625s.431-.193.654-.565a6.828,6.828,0,0,0,.55-1.16Z"/>
    <path class="cls-1" d="M68.821,49.357c.06-.089.387.015.357.119l-.015.045c-.491,1.442-1.056,2.156-1.71,2.156s-.952-.52-.952-1.576c0-.282.015-.729.06-1.309s.059-.937.059-1.041c0-.55-.134-.818-.387-.818s-.491.223-.728.669a6.735,6.735,0,0,0-.535,1.576,4.706,4.706,0,0,0-.074,1.963.846.846,0,0,1-.431.089.5.5,0,0,1-.491-.342A3.031,3.031,0,0,1,63.9,50.4c0-.119.015-.446.015-.52l.06-1.16q.044-.825.045-1.026c0-.535-.134-.8-.387-.8-.357,0-.684.4-.967,1.219a10.4,10.4,0,0,0-.535,2.5,3.955,3.955,0,0,0,.059.847.561.561,0,0,1-.446.164c-.625-.06-.684-.476-.669-1.041,0-.342.015-.862.045-1.576a8.856,8.856,0,0,0-.06-2.572,1.346,1.346,0,0,1,.55-.1c.4,0,.595.3.565.877,0,.015-.045.758-.045,1.427.386-1.487,1-2.23,1.814-2.23.639,0,1.011.52,1.011,1.234a2.234,2.234,0,0,1-.015.357c.386-1.026.937-1.546,1.65-1.546.61,0,1.011.491,1.011,1.249,0,.06-.03.431-.089,1.1s-.089,1.1-.089,1.294c0,.7.1,1.041.312,1.041.282,0,.639-.58,1.07-1.725Z"/>
    <path class="cls-1" d="M73.057,49.357c.06-.089.387.015.357.119l-.015.045a2.9,2.9,0,0,1-2.558,2.186c-1.2,0-2.1-.952-2.1-2.617a3.671,3.671,0,0,1,.565-2.037,1.853,1.853,0,0,1,1.635-.862,1.3,1.3,0,0,1,1.413,1.368c0,.967-.833,1.859-2.439,2.022.119,1.056.55,1.665,1.16,1.665a1.633,1.633,0,0,0,1.115-.535,3.122,3.122,0,0,0,.847-1.309Zm-2.87-2.007a4.584,4.584,0,0,0-.3,1.65v.193a1.657,1.657,0,0,0,1.532-1.7c0-.535-.208-.922-.491-.922S70.381,46.829,70.188,47.35Z"/>
    <path class="cls-1" d="M78.736,49.357c.06-.089.387.015.357.119l-.015.045a6.88,6.88,0,0,1-.625,1.442,1.141,1.141,0,0,1-1.011.714c-.61,0-1.056-.506-1.279-1.323-.193.833-.714,1.353-1.368,1.353a1.466,1.466,0,0,1-1.323-.8,3.722,3.722,0,0,1-.461-1.9,3.439,3.439,0,0,1,.565-2.007A1.714,1.714,0,0,1,75,46.19a1.19,1.19,0,0,1,.952.446,27.267,27.267,0,0,1,.505-4.832c.134-.639.342-.952.818-.967a.64.64,0,0,1,.52.193,27.384,27.384,0,0,0-.625,3.36,30.566,30.566,0,0,0-.223,3.554c0,2.186.223,3.286.654,3.286q.469,0,1.115-1.829Zm-3.063,1.175a4.251,4.251,0,0,0,.3-1.651c0-1.472-.4-2.26-.877-2.26-.268,0-.491.238-.684.714a4.862,4.862,0,0,0-.268,1.74c0,1.234.282,2.156.818,2.156C75.242,51.23,75.48,50.992,75.674,50.532Z"/>
    <path class="cls-1" d="M82.289,49.357c.06-.089.387.015.357.119l-.015.045c-.476,1.442-1.1,2.156-1.859,2.156-1-.045-1.323-1.279-1.294-2.5,0-.1.015-.535.045-1.279a12.505,12.505,0,0,1-.416,1.532l-.015.045c-.059.119-.416.045-.357-.119l.015-.045c.074-.178.282-1.011.639-2.5.1-.4.3-.625.61-.654a.882.882,0,0,1,.625.208,27.494,27.494,0,0,0-.223,3.078c0,1.145.208,1.725.61,1.725.208,0,.431-.193.684-.58a5.474,5.474,0,0,0,.58-1.189Zm-2.8-4.8a.65.65,0,1,1,.639.714A.649.649,0,0,1,79.494,44.554Z"/>
    <path class="cls-1" d="M87.969,49.357c.06-.089.387.015.357.119l-.015.045a6.88,6.88,0,0,1-.625,1.442,1.141,1.141,0,0,1-1.011.714c-.61,0-1.056-.506-1.279-1.323-.193.833-.714,1.353-1.368,1.353a1.466,1.466,0,0,1-1.323-.8,3.722,3.722,0,0,1-.461-1.9,3.439,3.439,0,0,1,.565-2.007,1.714,1.714,0,0,1,1.427-.8,1.19,1.19,0,0,1,.952.446,27.267,27.267,0,0,1,.505-4.832c.134-.639.342-.952.818-.967a.64.64,0,0,1,.52.193,27.384,27.384,0,0,0-.625,3.36,30.566,30.566,0,0,0-.223,3.554c0,2.186.223,3.286.654,3.286q.469,0,1.115-1.829Zm-3.063,1.175a4.251,4.251,0,0,0,.3-1.651c0-1.472-.4-2.26-.877-2.26-.268,0-.491.238-.684.714a4.862,4.862,0,0,0-.268,1.74c0,1.234.282,2.156.818,2.156C84.475,51.23,84.713,50.992,84.906,50.532Z"/>
    <path class="cls-1" d="M93.484,49.357c.06-.089.387.015.357.119l-.015.045c-.491,1.383-1.056,2.082-1.68,2.082q-1,0-.981-1.918c-.342,1.353-.907,2.022-1.71,2.022-.967,0-1.561-.981-1.561-2.245a3.766,3.766,0,0,1,.714-2.275,2.308,2.308,0,0,1,1.963-1c.714,0,1.264.3,1.279.7,0,.282-.282.476-.684.431-.074-.4-.3-.61-.639-.61-.446,0-.8.327-1.085.967a4.818,4.818,0,0,0-.416,1.977c0,.892.238,1.532.669,1.532.372,0,.7-.461.981-1.4a6.232,6.232,0,0,0,.357-2.156c.55-.119,1.011.074,1.026.476,0,.045-.03.357-.089.922a8.415,8.415,0,0,0-.045,1.472c.03.416.149.625.342.625s.431-.193.654-.565a6.828,6.828,0,0,0,.55-1.16Z"/>
  </g>
  <path class="cls-1" d="M59.059,12.347h3.9L69.638,29l6.7-16.654h3.9L69.638,38.7Z"/>
  <path class="cls-1" d="M86.11,38.7H82.5V12.347H86.11Z"/>
  <path class="cls-1" d="M103.942,35.428H93.234l-1.31,3.27H87.977L98.572,12.3l10.611,26.4h-3.93Zm-1.472-3.64-3.9-9.68-3.866,9.68Z"/>
  <path class="cls-1" d="M112.214,36.8a7.026,7.026,0,0,1-2.507-5.637h3.575a3.6,3.6,0,0,0,1.553,3.109,4.9,4.9,0,0,0,2.831.87,5.519,5.519,0,0,0,3.3-.983,3.3,3.3,0,0,0,1.359-2.835A2.346,2.346,0,0,0,121.5,29.4a6.484,6.484,0,0,0-4.044-1.5,9.678,9.678,0,0,1-6.227-2.835,6.5,6.5,0,0,1-1.8-4.526,8.518,8.518,0,0,1,1.812-5.347,7.548,7.548,0,0,1,6.276-2.851,8.232,8.232,0,0,1,6.1,2.384,8.53,8.53,0,0,1,2.41,6.394h-3.559a5.456,5.456,0,0,0-1.1-3.624,4.67,4.67,0,0,0-3.85-1.611,4.012,4.012,0,0,0-3.93,2.3,5.308,5.308,0,0,0-.582,2.351,3.174,3.174,0,0,0,.7,1.917,5.855,5.855,0,0,0,4.173,1.9c3.008.338,5.16,1.3,6.486,2.915a6.8,6.8,0,0,1,1.536,4.59,6.179,6.179,0,0,1-2.329,4.816,8.712,8.712,0,0,1-5.9,2.013A8.41,8.41,0,0,1,112.214,36.8Z"/>
  <path class="cls-1" d="M27.489,38.7,12.522,21.463V38.7H9.105V12.347l14.983,16.96V12.347h3.4Z"/>
  <path class="cls-1" d="M59.179,21.779a14.52,14.52,0,0,0-2.612-5.609A12.621,12.621,0,0,0,54.28,13.81c-.65-.5-1.349-.938-2.03-1.4a.156.156,0,0,0-.149.027c-.423.466-.841.937-1.259,1.409-.175.2-.347.4-.528.608a11.334,11.334,0,0,1,5.562,5.817,11.293,11.293,0,1,1-14.73-6.027c-.077-.1-.145-.184-.215-.27-.489-.6-.982-1.192-1.463-1.8-.081-.1-.135-.113-.237-.052-.5.3-1.021.565-1.5.889a13.87,13.87,0,0,0-2.979,2.7A14.575,14.575,0,0,0,31.51,23.3a14.739,14.739,0,0,0,.054,3.81,14.343,14.343,0,0,0,1.151,3.923,14.127,14.127,0,0,0,8.116,7.5,13.38,13.38,0,0,0,2.937.7,13.782,13.782,0,0,0,9.423-2.261,14.111,14.111,0,0,0,2.847-2.541A14.617,14.617,0,0,0,58,31.458a14.386,14.386,0,0,0,1.423-4.769A14.59,14.59,0,0,0,59.179,21.779ZM32.226,27.434c-.034-.2-.074-.392-.1-.59a14.719,14.719,0,0,1-.068-2.972,13.179,13.179,0,0,1,.7-3.394,13.691,13.691,0,0,1,5.226-6.906c.359-.247.744-.455,1.114-.685.091-.057.145-.044.213.041.2.257.413.505.609.742A15.165,15.165,0,0,0,32.226,27.434Zm25.043,2.477a10.864,10.864,0,0,1-2.663,4.627,10.553,10.553,0,0,1-12.2,2.288,11.613,11.613,0,0,0,10.5-2.3,12.1,12.1,0,0,0,4.538-9.947C57.824,25.231,57.738,28.278,57.269,29.911Z"/>
  <path class="cls-1" d="M53.948,4.762A3.632,3.632,0,0,0,52.535,3.57a4.043,4.043,0,0,0-1.81-.332q-4.418-.114-8.837-.2a14.621,14.621,0,0,0-1.786.047,2.631,2.631,0,0,0-1.746.793,14.21,14.21,0,0,0-1.073,1.367c-.637.9-1.25,1.825-1.891,2.766L45.611,20.5,56.366,8.441C55.559,7.21,54.764,5.978,53.948,4.762ZM52.68,4.83l1.722,2.8-3.429-.08Zm-1.1-.318L49.638,7.292,47.372,4.413Zm-5.674.056,2.471,2.948L45.79,10.772c-.284-.388-.544-.729-.789-1.082-.465-.668-.913-1.349-1.387-2.012-.155-.217-.123-.345.048-.534.714-.788,1.41-1.593,2.112-2.393C45.815,4.705,45.847,4.649,45.905,4.567Zm-1.4-.149L42.113,7.071l-1.7-2.749Zm-5.345.129L40.8,7.234l-3.339-.078Zm4.1,11.32L37.552,8.841a4.241,4.241,0,0,1,1.856.308,5.316,5.316,0,0,1,2.585,2.476,11.15,11.15,0,0,1,1.295,4.091.95.95,0,0,1,0,.117C43.291,15.838,43.282,15.843,43.26,15.867Zm-.431-6.95.034-.021,2.947,4.247,2.933-4.026.057.024-3.126,8.693Zm5.211,7.06-.046-.019c.028-.158.053-.316.086-.473a10.213,10.213,0,0,1,2.026-4.519A4.435,4.435,0,0,1,53.774,9.2c.076,0,.152.01.3.02Z"/>
  <polygon class="cls-1" points="36.744 50.337 0 50.337 0 0 133.806 0 133.806 50.125 97.381 50.125 97.381 49.699 133.38 49.699 133.38 0.426 0.426 0.426 0.426 49.911 36.744 49.911 36.744 50.337"/>
</svg>
