<svg id="Capa_1" data-name="Capa 1" xmlns="http://www.w3.org/2000/svg" viewBox="0 0 259.901 20.113">
  <defs>
    <style>
      .cls-1 {
        fill: #fff;
      }
    </style>
  </defs>
  <title>LogoKeepDrinking</title>
  <g>
    <path class="cls-1" d="M1.554,2H5.966v8.381L16.393,2h6.344L10.268,11.472l14,10.641H17.232L5.966,13.265v8.848H1.554Z" transform="translate(-1.554 -2)"/>
    <path class="cls-1" d="M25.073,2h19.25V5.43H29.448V9.912h8.677v3.43H29.448v4.989H44.505v3.781H25.073Z" transform="translate(-1.554 -2)"/>
    <path class="cls-1" d="M47.169,2h19.25V5.43H51.544V9.912h8.677v3.43H51.544v4.989H66.6v3.781H47.169Z" transform="translate(-1.554 -2)"/>
    <path class="cls-1" d="M69.265,2H85.38c2.88,0,4.23,1.091,4.23,3.9v4.483c0,2.806-1.349,3.9-4.23,3.9H73.568v7.835h-4.3Zm4.3,3.469v5.34h9.844c1.349,0,1.968-.273,1.968-1.6V7.067c0-1.325-.62-1.6-1.968-1.6Z" transform="translate(-1.554 -2)"/>
    <path class="cls-1" d="M100.951,2h12.1c7.037,0,10.755,3.7,10.755,9.94,0,3.781-1.532,6.9-4.156,8.615-1.823,1.208-4.375,1.559-7.729,1.559H100.951Zm10.026,16.332c5.542,0,8.312-1.481,8.312-6.47,0-4.093-2.078-6.276-6.2-6.276h-7.766V18.332Z" transform="translate(-1.554 -2)"/>
    <path class="cls-1" d="M125.855,2H141.97c2.88,0,4.229,1.091,4.229,3.9v4.717c0,2.806-1.349,3.9-4.229,3.9H139.49l8.678,7.6H141.9l-7.584-7.6h-4.156v7.6h-4.3Zm4.3,3.469v5.613H140c1.349,0,1.968-.273,1.968-1.6V7.067c0-1.325-.62-1.6-1.968-1.6Z" transform="translate(-1.554 -2)"/>
    <path class="cls-1" d="M149.118,2h4.375V22.113h-4.375Z" transform="translate(-1.554 -2)"/>
    <path class="cls-1" d="M157.1,2h2.99l13.234,11.849a16.789,16.789,0,0,1,2.151,2.183c-.109-1.676-.182-2.845-.182-3.469V2h3.938V22.113h-2.99L162.426,9.679a15.988,15.988,0,0,1-1.568-1.637c.145,1.559.182,2.611.182,3.2V22.113H157.1Z" transform="translate(-1.554 -2)"/>
    <path class="cls-1" d="M182.845,2h4.411v8.381L197.684,2h6.344l-12.469,9.472,14,10.641h-7.037l-11.266-8.848v8.848h-4.411Z" transform="translate(-1.554 -2)"/>
    <path class="cls-1" d="M205.816,2h4.375V22.113h-4.375Z" transform="translate(-1.554 -2)"/>
    <path class="cls-1" d="M213.8,2h2.99l13.234,11.849a16.789,16.789,0,0,1,2.151,2.183c-.109-1.676-.182-2.845-.182-3.469V2h3.938V22.113h-2.99L219.124,9.679a15.988,15.988,0,0,1-1.568-1.637c.145,1.559.182,2.611.182,3.2V22.113H213.8Z" transform="translate(-1.554 -2)"/>
    <path class="cls-1" d="M243.518,5.586V18.332H257.19V13.849h-7.146V10.42h11.411v6.938c0,3.781-1.13,4.755-4.667,4.755H243.81c-3.537,0-4.667-.975-4.667-4.755V6.755c0-3.781,1.13-4.755,4.667-4.755h12.979c3.427,0,4.667.936,4.667,4.56v.468l-4.265.818V5.586Z" transform="translate(-1.554 -2)"/>
  </g>
</svg>
