<svg id="Capa_1" data-name="Capa 1" xmlns="http://www.w3.org/2000/svg" viewBox="0 0 68.817 67.097">
  <defs>
    <style>
      .cls-1 {
        fill: #aed3e9;
      }
    </style>
  </defs>
  <title>lrico</title>
  <path class="cls-1" d="M0,0V67.1H68.817V0ZM2.867,2.867H65.95V64.229H2.867Zm16.2,43.943c-.331,0-.426-.142-.426-.426V15.576c0-.237.095-.378.331-.378h4.546c.237,0,.284.095.284.331V42.079H35.627c.237,0,.3.095.257.331l-.71,4.069a.376.376,0,0,1-.425.331H19.064ZM40.287,28.24c0-.331,0-1.183-.142-2.792,0-.237.052-.284.241-.378a30.249,30.249,0,0,1,10.538-1.987c.237,0,.331.047.331.284V27.53c0,.237-.095.284-.331.284a16.766,16.766,0,0,0-5.475.568v18.1c0,.237-.095.331-.331.331h-4.5c-.237,0-.331-.095-.331-.331Z"/>
</svg>
