<svg id="Capa_1" data-name="Capa 1" xmlns="http://www.w3.org/2000/svg" viewBox="0 0 68.817 67.097">
  <defs>
    <style>
      .cls-1 {
        fill: #c1e800;
      }
    </style>
  </defs>
  <title>museico</title>
  <path class="cls-1" d="M0,0V67.1H68.817V0ZM2.867,2.867H65.95V64.229H2.867ZM11.7,15.283h6.71c.229,0,.344.057.373.287,1.176,4.387,4.588,18.7,5.391,23.513h.057C25.118,34.7,29.1,20.215,30.337,15.57c.057-.229.143-.287.373-.287h6.48c.229,0,.287.057.344.229l1.147,31c.057.287-.086.373-.344.373H33.749c-.287,0-.344-.143-.344-.373-.2-10.122-.2-24.43-.2-26.953h-.057c-.8,4.014-4.961,20.186-6.767,26.953-.057.287-.2.373-.373.373H21.849a.384.384,0,0,1-.43-.315c-1.749-7.054-4.961-21.649-6.05-26.982h-.086c0,3.728-.373,16.688-.746,26.953,0,.287-.143.373-.344.373H10.036c-.287,0-.373-.086-.373-.344l1.692-31C11.412,15.312,11.441,15.283,11.7,15.283Zm47.513,26.81c0,.344.057,1.319.143,2.925,0,.2-.029.287-.2.344a23.71,23.71,0,0,1-8.774,1.95c-4.3,0-8.43-1.663-8.43-8.287V23.885c0-.229.086-.373.344-.373h4.5c.229,0,.344.143.344.373V38.394c0,2.781,1.061,4.3,3.986,4.3a8.154,8.154,0,0,0,2.953-.516V23.885c0-.229.086-.373.344-.373h4.5c.287,0,.344.143.344.373V42.093Z"/>
</svg>
