<?xml version="1.0" encoding="utf-8"?>
<!-- Generator: Adobe Illustrator 22.1.0, SVG Export Plug-In . SVG Version: 6.00 Build 0)  -->
<svg version="1.1" id="Layer_1" xmlns="http://www.w3.org/2000/svg" xmlns:xlink="http://www.w3.org/1999/xlink" x="0px" y="0px"
	 viewBox="0 0 286.1 286.1" style="enable-background:new 0 0 286.1 286.1;" xml:space="preserve">
<style type="text/css">
	.st0{fill:#FFFFFF;}
</style>
<path class="st0" d="M143,0C64,0,0,64,0,143c0,79,64,143,143,143s143-64,143-143C286.1,64,222,0,143,0z M143,259.2
	c-64.2,0-116.2-52-116.2-116.2S78.8,26.8,143,26.8s116.2,52,116.2,116.2S207.2,259.2,143,259.2z M200.9,136.4L119,90.9
	c-6-3.6-11.8-0.7-11.8,6.5v91.4c0,7.2,5.9,10.2,11.8,6.5l81.7-44.9C208.3,146,205.5,139.1,200.9,136.4z"/>
</svg>
