<svg id="Capa_1" data-name="Capa 1" xmlns="http://www.w3.org/2000/svg" viewBox="0 0 66.899 65.376">
  <defs>
    <style>
      .cls-1 {
        fill: #fff;
      }

      .cls-2 {
        fill: #cb4a32;
      }
    </style>
  </defs>
  <title>pptico</title>
  <g id="g14">
    <rect class="cls-1" x="35.267" y="8.878" width="30.405" height="46.216"/>
    <g id="g20">
      <path id="path22" class="cls-2" d="M64.7,54.511h0m0,0H38.254V48.836H58.876V46.2H38.254V41.75H58.876V39.116H38.254V31.8a8.94,8.94,0,0,0,6.894,3.274,9.189,9.189,0,0,0,9.06-9.312h-9.06V16.446a8.94,8.94,0,0,0-6.894,3.274V9.359H64.7Zm0-47.41H38.254V0L0,6.822V58.554l38.254,6.822V56.769H64.7a2.23,2.23,0,0,0,2.2-2.258V9.359A2.23,2.23,0,0,0,64.7,7.1"/>
    </g>
    <g id="g24">
      <path id="path26" class="cls-2" d="M46.551,15.129v9.312h9.06a9.189,9.189,0,0,0-9.06-9.312"/>
    </g>
    <g id="g28">
      <path id="path30" class="cls-1" d="M16.187,32.289c1.526.12,3.017.414,3.944-1.213a4.547,4.547,0,0,0-.171-4.412c-1.051-1.219-2.409-1.045-3.773-.823Zm-.108,11.544H12.247V21.851c2.956,0,5.9-.085,8.827.058a3.761,3.761,0,0,1,2.233,1.23c2.176,2.309,2.176,5.186,1.526,8.055a6.243,6.243,0,0,1-4.711,4.985,26.309,26.309,0,0,1-4.044.379Z"/>
    </g>
  </g>
</svg>
