<svg id="Capa_1" data-name="Capa 1" xmlns="http://www.w3.org/2000/svg" viewBox="0 0 54.491 65.516">
  <defs>
    <style>
      .cls-1 {
        fill: #0082ff;
      }

      .cls-2 {
        fill: #fff;
      }
    </style>
  </defs>
  <title>prezico</title>
  <path class="cls-1" d="M27.191,9.707a13.531,13.531,0,0,0-9.974,4.16,13.527,13.527,0,0,0-4.158,10,13.384,13.384,0,0,0,4.158,9.94,13.536,13.536,0,0,0,9.974,4.163,13.633,13.633,0,0,0,9.974-4.163,13.464,13.464,0,0,0,4.127-9.94,13.614,13.614,0,0,0-4.127-10A13.628,13.628,0,0,0,27.191,9.707Zm9.02,23.153a12.4,12.4,0,0,1-9.02,3.715A12.172,12.172,0,0,1,18.2,32.859a12.186,12.186,0,0,1-3.749-8.989A12.163,12.163,0,0,1,18.2,14.85,12.084,12.084,0,0,1,27.191,11.1a12.3,12.3,0,0,1,9.02,3.747,12.226,12.226,0,0,1,3.684,9.021A12.247,12.247,0,0,1,36.21,32.859Zm-9.02-20.328a11.279,11.279,0,0,0-11.337,11.34,10.878,10.878,0,0,0,3.3,8,10.971,10.971,0,0,0,8.035,3.334,10.856,10.856,0,0,0,8-3.333,10.913,10.913,0,0,0,3.335-8.005,10.933,10.933,0,0,0-3.335-8.035A10.837,10.837,0,0,0,27.191,12.531ZM37.1,24.347a9.427,9.427,0,0,1-3.239,6.894,9.56,9.56,0,0,1-7.177,2.539A9.882,9.882,0,0,1,17.25,23.33a9.578,9.578,0,0,1,3.3-6.858,9.558,9.558,0,0,1,7.177-2.544A9.555,9.555,0,0,1,34.559,17.2,9.442,9.442,0,0,1,37.1,24.347ZM42.755,17.3a16.379,16.379,0,0,0-3.592-5.4,17.183,17.183,0,0,0-5.4-3.622,16.569,16.569,0,0,0-6.575-1.332,16.791,16.791,0,0,0-6.606,1.332A17.03,17.03,0,0,0,15.218,11.9a16.357,16.357,0,0,0-3.59,5.4,15.923,15.923,0,0,0-1.334,6.574,16.134,16.134,0,0,0,1.334,6.575A16.845,16.845,0,0,0,27.191,40.77a16.544,16.544,0,0,0,6.575-1.335,17.172,17.172,0,0,0,5.4-3.622,16.958,16.958,0,0,0,3.592-5.366,16.2,16.2,0,0,0,1.366-6.575A16.011,16.011,0,0,0,42.755,17.3Zm-1.273,12.61a15.7,15.7,0,0,1-3.334,4.924,15.328,15.328,0,0,1-4.922,3.333,15.677,15.677,0,0,1-12.068,0A15.829,15.829,0,0,1,16.2,34.83a15.62,15.62,0,0,1-3.3-4.924,15.762,15.762,0,0,1,0-12.1,15.594,15.594,0,0,1,3.3-4.922,15.807,15.807,0,0,1,4.955-3.335,15.675,15.675,0,0,1,12.067,0,15.3,15.3,0,0,1,4.923,3.335A15.7,15.7,0,0,1,41.482,17.8a15.39,15.39,0,0,1,0,12.1Z" transform="translate(0 0)"/>
  <path class="cls-1" d="M19.918,27.747A7.558,7.558,0,0,0,20.744,29V18.684a8.005,8.005,0,0,0-1.8,5.158A7.64,7.64,0,0,0,19.918,27.747Z" transform="translate(0 0)"/>
  <path class="cls-1" d="M22.586,30.708a.357.357,0,0,1,.039.031,8.394,8.394,0,0,0,1.8.9v-15.6a7.913,7.913,0,0,0-1.842.933Z" transform="translate(0 0)"/>
  <path class="cls-1" d="M26.3,15.637V32.059h.007a4.338,4.338,0,0,0,.912.062,4.342,4.342,0,0,0,.914-.062l.008,0V15.638a8.668,8.668,0,0,0-.923-.048A8.9,8.9,0,0,0,26.3,15.637Z" transform="translate(0 0)"/>
  <path class="cls-1" d="M30.019,31.644a7.709,7.709,0,0,0,1.8-.9l.041-.031V17a7.9,7.9,0,0,0-1.841-.944Z" transform="translate(0 0)"/>
  <path class="cls-1" d="M33.7,18.712V29a8.692,8.692,0,0,0,.825-1.224,8.123,8.123,0,0,0,.946-3.9A7.964,7.964,0,0,0,33.7,18.712Z" transform="translate(0 0)"/>
  <path class="cls-1" d="M23.452.3A24.76,24.76,0,0,0,21.02.812l1.322,4.9A19.368,19.368,0,0,1,24.274,5.3Z" transform="translate(0 0)"/>
  <path class="cls-1" d="M11.454,13.631,7.191,10.876a24.5,24.5,0,0,0-1.253,2.169l4.523,2.3a18.976,18.976,0,0,1,.993-1.717" transform="translate(0 0)"/>
  <path class="cls-1" d="M18.668,1.575a23.707,23.707,0,0,0-2.284,1.016L18.7,7.11a19.2,19.2,0,0,1,1.781-.792Z" transform="translate(0 0)"/>
  <path class="cls-1" d="M16.977,8.1,14.213,3.846A23.307,23.307,0,0,0,12.188,5.32l3.2,3.941A18.655,18.655,0,0,1,16.977,8.1" transform="translate(0 0)"/>
  <path class="cls-1" d="M13.929,10.575,10.314,7.014A23.826,23.826,0,0,0,8.664,8.849l3.959,3.179a18.783,18.783,0,0,1,1.306-1.452" transform="translate(0 0)"/>
  <path class="cls-1" d="M39.025,9.259l3.222-3.92a23.524,23.524,0,0,0-2.062-1.5l-2.75,4.267a19.281,19.281,0,0,1,1.59,1.153" transform="translate(0 0)"/>
  <path class="cls-1" d="M38.038,2.6a23.281,23.281,0,0,0-2.263-1.009L33.943,6.323a18.707,18.707,0,0,1,1.815.81Z" transform="translate(0 0)"/>
  <path class="cls-1" d="M41.816,12.056l3.931-3.215A24.1,24.1,0,0,0,44.081,7l-3.6,3.572a18.579,18.579,0,0,1,1.34,1.489" transform="translate(0 0)"/>
  <path class="cls-1" d="M43.946,15.333l4.516-2.319a23.929,23.929,0,0,0-1.24-2.145l-4.249,2.776a18.721,18.721,0,0,1,.974,1.688" transform="translate(0 0)"/>
  <path class="cls-1" d="M45.347,18.981l4.906-1.3a23.778,23.778,0,0,0-.775-2.392l-4.737,1.831a19.34,19.34,0,0,1,.606,1.86" transform="translate(0 0)"/>
  <path class="cls-1" d="M33.372.8A23.4,23.4,0,0,0,30.922.288l-.769,5.018a18.7,18.7,0,0,1,1.941.411Z" transform="translate(0 0)"/>
  <path class="cls-1" d="M28.45.031a24.159,24.159,0,0,0-2.492,0L26.224,5.1c.66-.034,1.314-.033,1.959,0Z" transform="translate(0 0)"/>
  <path class="cls-1" d="M9.07,28.74,4.161,30.033a24.2,24.2,0,0,0,.76,2.354l4.751-1.795a18.994,18.994,0,0,1-.6-1.853" transform="translate(0 0)"/>
  <path class="cls-1" d="M45.756,26.81l5.017.78a23.136,23.136,0,0,0,.259-2.508l-5.067-.263a18.445,18.445,0,0,1-.208,1.991" transform="translate(0 0)"/>
  <path class="cls-1" d="M44.745,30.586l4.741,1.821a24.173,24.173,0,0,0,.777-2.4L45.35,28.723a19.064,19.064,0,0,1-.6,1.863" transform="translate(0 0)"/>
  <path class="cls-1" d="M50.771,20.119l-5.014.79c.1.645.171,1.3.206,1.966v.016l5.068-.265v-.017q-.07-1.265-.26-2.49" transform="translate(0 0)"/>
  <path class="cls-1" d="M42.957,34.088l4.258,2.768a24.547,24.547,0,0,0,1.254-2.173l-4.53-2.294a18.225,18.225,0,0,1-.983,1.7" transform="translate(0 0)"/>
  <path class="cls-1" d="M40.484,37.14l3.585,3.593a24.02,24.02,0,0,0,1.679-1.867l-3.959-3.177a17.923,17.923,0,0,1-1.306,1.451" transform="translate(0 0)"/>
  <path class="cls-1" d="M37.46,39.6,40.2,43.868A24.331,24.331,0,0,0,42.226,42.4l-3.215-3.933A17.7,17.7,0,0,1,37.46,39.6" transform="translate(0 0)"/>
  <path class="cls-1" d="M9.668,17.129,4.926,15.321a23.284,23.284,0,0,0-.765,2.353l4.9,1.316a19.052,19.052,0,0,1,.6-1.861" transform="translate(0 0)"/>
  <path class="cls-1" d="M12.6,35.658l-3.939,3.2a24.511,24.511,0,0,0,1.675,1.861l3.608-3.572A20.026,20.026,0,0,1,12.6,35.658" transform="translate(0 0)"/>
  <path class="cls-1" d="M10.467,32.381,5.952,34.7a23.647,23.647,0,0,0,1.233,2.134l4.272-2.742a19.03,19.03,0,0,1-.99-1.71" transform="translate(0 0)"/>
  <path class="cls-1" d="M8.454,24.855l-5.069.266a24.386,24.386,0,0,0,.255,2.445l5.014-.792a19.107,19.107,0,0,1-.2-1.919" transform="translate(0 0)"/>
  <path class="cls-1" d="M15.391,38.455l-3.207,3.934a24.307,24.307,0,0,0,2.025,1.474l2.785-4.246a18.888,18.888,0,0,1-1.6-1.162" transform="translate(0 0)"/>
  <path class="cls-1" d="M8.659,20.9l-5.018-.778A23.648,23.648,0,0,0,3.384,22.6l5.068.261A19.117,19.117,0,0,1,8.659,20.9" transform="translate(0 0)"/>
  <path class="cls-1" d="M33.962,41.383l1.794,4.753a24,24,0,0,0,2.3-1.026L35.75,40.587a17.981,17.981,0,0,1-1.787.8" transform="translate(0 0)"/>
  <path class="cls-1" d="M16.377,45.117a23.72,23.72,0,0,0,2.288,1.02l1.8-4.746a18.864,18.864,0,0,1-1.78-.8Z" transform="translate(0 0)"/>
  <path class="cls-1" d="M25.935,47.68a24.063,24.063,0,0,0,2.521,0l-.266-5.067a18.7,18.7,0,0,1-1.96,0Z" transform="translate(0 0)"/>
  <path class="cls-1" d="M30.139,42.409l.792,5.014a23.815,23.815,0,0,0,2.434-.513L32.071,42a18.541,18.541,0,0,1-1.931.407" transform="translate(0 0)"/>
  <path class="cls-1" d="M21.035,46.909a23.855,23.855,0,0,0,2.428.513l.8-5.012A18.761,18.761,0,0,1,22.351,42Z" transform="translate(0 0)"/>
  <path class="cls-2" d="M0,65.283V48.719H7.129a5.675,5.675,0,0,1,5.607,5.506A5.472,5.472,0,0,1,7.253,59.73H3.423v5.553Zm3.423-8.375H7.055c1.265,0,2.208-1.05,2.208-2.683a2.454,2.454,0,0,0-2.357-2.683H3.423Z" transform="translate(0 0)"/>
  <path class="cls-2" d="M22.418,55.572a5,5,0,0,0-4.411,2.474v7.237H14.682V53.058h3.051v2.613a5.151,5.151,0,0,1,4.019-2.776,4.706,4.706,0,0,1,.67.023Z" transform="translate(0 0)"/>
  <path class="cls-2" d="M23.319,59.24c0-3.476,2.629-6.392,6.872-6.392s6.461,2.9,6.461,6.211a6.55,6.55,0,0,1-.111,1.114h-9.7a3.329,3.329,0,0,0,3.448,3.056,3.5,3.5,0,0,0,3.235-1.909l2.805,1c-.943,1.866-3.175,3.2-6.053,3.2C25.81,65.516,23.319,62.623,23.319,59.24Zm10.22-1.1a3.284,3.284,0,0,0-3.4-3.033,3.239,3.239,0,0,0-3.349,3.033Z" transform="translate(0 0)"/>
  <path class="cls-2" d="M50.819,49.815a1.841,1.841,0,0,1,3.672,0,1.839,1.839,0,0,1-3.672,0Z" transform="translate(0 0)"/>
  <rect class="cls-2" x="50.993" y="53.058" width="3.324" height="12.225"/>
  <polygon class="cls-2" points="37.098 65.283 43.829 55.57 37.819 55.57 37.819 53.047 48.74 53.047 42.009 62.76 48.796 62.76 48.796 65.283 37.098 65.283"/>
</svg>
