<svg id="Capa_1" data-name="Capa 1" xmlns="http://www.w3.org/2000/svg" viewBox="0 0 68.817 67.097">
  <defs>
    <style>
      .cls-1 {
        fill: #ea77ff;
      }
    </style>
  </defs>
  <title>prmr</title>
  <path class="cls-1" d="M0,0V67.1H68.817V0ZM2.867,2.867H65.95V64.229H2.867Zm15,12.846c0-.2.057-.344.287-.344,1.835-.086,4.53-.143,7.369-.143,7.943,0,11.412,4.358,11.412,9.95,0,7.283-5.276,10.409-11.756,10.409-1.09,0-1.462-.057-2.237-.057V46.538c0,.229-.086.344-.344.344H18.179c-.229,0-.344-.086-.344-.344C17.835,46.538,17.835,15.713,17.864,15.713Zm5.075,15.226C23.6,31,24.115,31,25.262,31c3.355,0,6.509-1.176,6.509-5.735,0-3.642-2.237-5.477-6.079-5.477-1.147,0-2.237.057-2.753.086ZM41.29,28.33c0-.344,0-1.176-.143-2.781,0-.229.029-.287.229-.373A29.773,29.773,0,0,1,51.871,23.2c.229,0,.344.057.344.287v4.158c0,.229-.086.287-.315.287a16.5,16.5,0,0,0-5.419.573V46.566c0,.229-.086.344-.344.344h-4.5c-.229,0-.344-.086-.344-.344V28.33Z"/>
</svg>
