<svg id="Capa_1" data-name="Capa 1" xmlns="http://www.w3.org/2000/svg" viewBox="0 0 68.817 67.097">
  <defs>
    <style>
      .cls-1 {
        fill: #31c5f0;
      }
    </style>
  </defs>
  <title>psico</title>
  <path class="cls-1" d="M0,0V67.1H68.817V0ZM2.867,2.867H65.95V64.229H2.867ZM16.631,15.71c0-.189.406-.331.642-.331,1.845-.095,4.554-.142,7.393-.142,7.948,0,11.044,4.353,11.044,9.935,0,7.286-5.284,10.409-11.766,10.409-1.088,0-1.467-.048-2.224-.048V46.55c0,.237-.095.331-.331.331H16.962c-.237,0-.331-.095-.331-.331V15.71Zm5.09,15.234c.662.047,1.183.047,2.318.047,3.359,0,6.514-1.183,6.514-5.725,0-3.643-2.256-5.488-6.088-5.488-1.135,0-2.224.047-2.744.095V30.945ZM46.4,27.538c-2.271,0-3.028,1.135-3.028,2.082,0,1.041.52,1.75,3.549,3.312,4.495,2.176,5.914,4.258,5.914,7.333,0,4.59-3.5,7.05-8.232,7.05a12.493,12.493,0,0,1-5.872-1.23c-.189-.095-.237-.237-.237-.473V41.4c0-.284.142-.378.331-.237a10.623,10.623,0,0,0,5.777,1.7c2.271,0,3.217-.946,3.217-2.224,0-1.041-.662-1.94-3.548-3.454C40.2,35.25,38.5,33.263,38.5,29.951c0-3.69,2.886-6.766,7.9-6.766a13.356,13.356,0,0,1,5.144.8.618.618,0,0,1,.284.568v3.928c0,.236-.142.378-.426.284a10.289,10.289,0,0,0-5-1.23Z"/>
</svg>
