<svg id="Capa_1" data-name="Capa 1" xmlns="http://www.w3.org/2000/svg" viewBox="0 0 268.91 32.378">
  <defs>
    <style>
      .cls-1 {
        fill: #fff;
      }
    </style>
  </defs>
  <title>RStones Logo</title>
  <g>
    <path class="cls-1" d="M141.473,10.057a4.209,4.209,0,0,0-.788-1.773.7.7,0,0,1-.1-.2c-.01-.025-.02-.05-.032-.074l.168-.032h-3.034l0,0a3.769,3.769,0,0,0-1.066,1.487,6.483,6.483,0,0,0-.549,1.121,16.482,16.482,0,0,0-.6,3.65c-.109,1.174-.12,2.361-.116,3.542.006,1.782.034,3.566.105,5.346.048,1.214.186,2.425.28,3.638.012.157,0,.317,0,.466-.345.153-.555-.1-.8-.169-.871-.252-1.738-.518-2.607-.781a26,26,0,0,0-4.172-1.022c-1.355-.177-2.708-.3-4.072-.348-.176-.006-.352-.035-.564-.057.114-.931.256-1.777.312-2.628.1-1.5.175-3.009.205-4.515.027-1.344-.037-2.69-.032-4.035q.006-2.043.07-4.086a3.533,3.533,0,0,0-1.061-2.648,2.08,2.08,0,0,0-2.64-.338,2.381,2.381,0,0,0-1.06,1.275A13.022,13.022,0,0,0,118.353,12c-.084,1.707-.223,3.412-.285,5.119-.035.979.012,1.963.063,2.943.086,1.634.176,3.268.328,4.9a.881.881,0,0,1-.4,1,.634.634,0,0,0-.242.945,3.137,3.137,0,0,0,.652.919,1.37,1.37,0,0,1,.515,1.237,4.39,4.39,0,0,1-.047.705,1.814,1.814,0,0,0,.268,1.365l.567-.538c-.275.756.439.619.658,1a7.264,7.264,0,0,0,1.147-1.826,1.192,1.192,0,0,1,.29.026,21.353,21.353,0,0,0,3.787,1,12.438,12.438,0,0,0,4.289,0q1.34-.234,2.675-.5a1.506,1.506,0,0,0,.764-.255c.307-.323.686-.284,1.045-.364.159-.036.329-.025.486-.066.094-.025.241-.1.247-.168.037-.413.318-.287.557-.3a14.632,14.632,0,0,1,.2,1.614c.025,1.318,0,2.637,0,3.955,0,.025.043.049.067.074.329.032.36-.291.542-.526l.076,1.122c.326-.2.288-.456.328-.672.075-.4.053-.84.459-1.117.07-.048.083-.2.1-.3a46.524,46.524,0,0,1,1.427-5.31c.264-.905.608-1.788.861-2.7.472-1.7.95-3.39,1.3-5.12a32.554,32.554,0,0,0,.724-5.719A15.7,15.7,0,0,0,141.473,10.057Z" transform="translate(-7.09 -3)"/>
    <path class="cls-1" d="M65.236,10.61l.4-.321A1.217,1.217,0,0,0,64.607,9.9a5.005,5.005,0,0,1-1.077-.131c-.773-.195-1.526-.471-2.3-.641-1.454-.318-2.909-.658-4.382-.854a35.877,35.877,0,0,0-5.274-.389,10.609,10.609,0,0,0-2.909.357,2.792,2.792,0,0,0-1.073.61,1.9,1.9,0,0,0-.265,2.273,1.362,1.362,0,0,1,.215.594c-.017.909-.066,1.817-.119,2.724-.082,1.415-.2,2.829-.258,4.245-.046,1.035-.058,2.073-.037,3.109.022,1.144.068,2.29.16,3.43a14.918,14.918,0,0,0,.815,3.494.784.784,0,0,0,.732.613c.326.035.706.036.864.444.019.049.12.082.187.092a4.331,4.331,0,0,1,1.395.487,6.349,6.349,0,0,0,1.414.381c.379.1.757.2,1.146.3-.034.1-.038.168-.071.192H56.8l3.425-.659c1.195-.927,2.469-1.735,3.706-2.6-.156-.437-.262-.6-.539-.708a10.689,10.689,0,0,0-2.013-.655,20.866,20.866,0,0,0-9.02.538c-.2.057-.405.107-.661.174l.781-6a1.183,1.183,0,0,1,.25-.021c1,.165,2.011.3,3,.513a16.629,16.629,0,0,0,3.851.307,3.471,3.471,0,0,0,1.573-.353,5.66,5.66,0,0,0,.582-.3,2.153,2.153,0,0,0,1.071-1.189c-.308-.268-.6-.565-.934-.806a8.418,8.418,0,0,0-4.409-1.408,15.322,15.322,0,0,0-4.383.415,2.329,2.329,0,0,1-.389.02c0-.991.03-1.933-.008-2.872s-.108-1.9-.069-2.859c1.248.148,2.417.334,3.594.414,1.3.089,2.617.141,3.923.1a11.326,11.326,0,0,0,5.052-1.544c.234-.127.462-.266.685-.395l-.22-.579Z" transform="translate(-7.09 -3)"/>
    <path class="cls-1" d="M163.276,12.034a10.807,10.807,0,0,0,.139-3.253A3.084,3.084,0,0,0,162.807,7c-.123-.139-.247-.248-.408-.1-.434.4-.992.7-1.1,1.364a1.367,1.367,0,0,1-.167.341c-.266.537-.56,1.063-.791,1.615q-1.241,2.967-2.444,5.95c-.737,1.837-1.441,3.687-2.164,5.53a3.723,3.723,0,0,1-.258.427c-.175-.7-.319-1.268-.464-1.839-.289-1.142-.533-2.3-.878-3.423-.431-1.4-.9-2.8-1.435-4.167a20.326,20.326,0,0,0-1.666-3.486,11.341,11.341,0,0,1-1.013-1.988,3.748,3.748,0,0,0-.656-1.233c-.423-.469-.676-1.167-1.456-1.119-.019-.055-.036-.105-.053-.153-1.238.862-2.512,1.67-3.706,2.6l.239-.046c-.238.592-.473,1.159-.693,1.732a11.245,11.245,0,0,0-.428,1.234c-.246.967-.483,1.937-.68,2.914-.226,1.121-.46,2.246-.594,3.38a35.129,35.129,0,0,0-.075,6.427c.036.544.093,1.087.16,1.629.144,1.154.308,2.306.451,3.46.134,1.082.253,2.166.378,3.249a.41.41,0,0,0,.03.16,4.147,4.147,0,0,1,.314,1.862c.033.317.06.634.09.959l.32-.08c.174.266-.092.672.373.819l.232-.974c.784-.026.807-.062.864-.781A3.821,3.821,0,0,1,145.3,32.2a6.473,6.473,0,0,0,.319-1.648c.057-.5.2-.991.309-1.487.03-.142.065-.283.091-.426.171-.945.311-1.9.519-2.834.232-1.046.532-2.076.788-3.117.417-1.691.821-3.386,1.233-5.078a2.39,2.39,0,0,1,.118-.288,2.046,2.046,0,0,1,.2.312c.2.526.379,1.061.589,1.583.583,1.448,1.161,2.9,1.774,4.334.485,1.136,1.062,2.235,1.518,3.382.465,1.17,1.214,2.183,1.718,3.327a.655.655,0,0,0,.238.293A.593.593,0,0,1,155,31.2a2.641,2.641,0,0,0,.023.359l1.106-.567c.075-.038.192-.124.223-.1.256.2.372-.021.479-.168a9.356,9.356,0,0,0,.559-.868c.332-.581.648-1.172.972-1.758a3.751,3.751,0,0,0,.288-.516c.306-.854.606-1.711.889-2.574.335-1.018.663-2.04.975-3.066.4-1.3.74-2.617,1.163-3.909A44.265,44.265,0,0,0,163.276,12.034Z" transform="translate(-7.09 -3)"/>
    <path class="cls-1" d="M46.071,8.884c-.162-.745-.325-1.49-.5-2.233a11.892,11.892,0,0,0-.882-2.572,1.855,1.855,0,0,0-.987-.961,1.419,1.419,0,0,0-1.68.393.716.716,0,0,1-.2.181,1.929,1.929,0,0,0-1.012,1.746,26.077,26.077,0,0,0-.059,3.38c.043,1.162.044,2.327.054,3.49.015,1.674.033,3.348.025,5.022,0,.609-.075,1.219-.122,1.92a32.617,32.617,0,0,0-7.075-1.084c.036-.295.078-.541.1-.789q.109-1.578.2-3.157a19.672,19.672,0,0,0-.38-6.337,3.149,3.149,0,0,0-.815-1.514,2.074,2.074,0,0,0-2.211-.555,2.955,2.955,0,0,0-1.96,2.093,2.921,2.921,0,0,1-.233.5c-.313-.057-.671.026-.642-.465,0-.043-.13-.118-.209-.136-.159-.037-.327-.031-.486-.066-.47-.1-1.03.022-1.335-.523-.032-.057-.164-.064-.252-.084-.621-.137-1.241-.276-1.863-.405a21.621,21.621,0,0,0-3.927-.575,19.464,19.464,0,0,0-6.178.87c-.936.287-1.841.679-2.779.959a7.013,7.013,0,0,0-3.183,2.281,2.074,2.074,0,0,0-.369.783A1.019,1.019,0,0,0,7.8,12.1a10.771,10.771,0,0,0,3.616.955c1.215.079,2.436.083,3.653.125a2.959,2.959,0,0,1,.42.077c-.023.157-.031.264-.056.368-.153.655-.321,1.306-.462,1.963-.285,1.331-.57,2.663-.826,4-.191,1-.394,2-.49,3.006-.14,1.465-.222,2.939-.263,4.41a19.291,19.291,0,0,0,.139,2.553c.048.459.306.9-.056,1.377a3.149,3.149,0,0,1,.661.106c.2.08.356.248.547.349a2.331,2.331,0,0,0,2.485-.006,2.217,2.217,0,0,1,.485-.234,2.372,2.372,0,0,0,1.819-1.525,2.6,2.6,0,0,0,.079-1.444c-.068-.265-.331-.48-.527-.747.125-1.026.216-2.114.4-3.186a41.392,41.392,0,0,0,.569-5.474,30.18,30.18,0,0,0-.34-4.557c-.054-.462-.139-.92-.208-1.367a.935.935,0,0,1,.209-.093,18.284,18.284,0,0,0,3.609-.8c1.546-.458,3.084-.945,4.627-1.414.058-.018.131.018.248.037-.066.654-.13,1.284-.192,1.913-.147,1.481-.306,2.961-.436,4.444-.127,1.448-.269,2.9-.325,4.349a21.276,21.276,0,0,0,.635,6.435,7.238,7.238,0,0,0,.476,1.439,8.645,8.645,0,0,1,.616,1.446,5.558,5.558,0,0,0,.705,1.452,2.48,2.48,0,0,0,.685-.286,1.836,1.836,0,0,0,.3-.571c.128.173.115.483.438.459a1.528,1.528,0,0,0,.386-1.1,8.2,8.2,0,0,1,.419-2.677c.2-.793.4-1.583.59-2.377.172-.721.327-1.446.516-2.286a15.746,15.746,0,0,0,7.635.408c.043.735.082,1.4.121,2.07s.063,1.309.118,1.961a19.681,19.681,0,0,0,.225,2,8.712,8.712,0,0,0,.31,2.015l.28-.722a2.413,2.413,0,0,1,.179,1.109,4.284,4.284,0,0,0,.036.595c.064.316.162.625.245.937.029.11.055.22.1.394.135-.34.245-.6.34-.858s.179-.542.268-.813c.271.63.137,1.3.427,1.908a10.022,10.022,0,0,0,.513-1.86c.1-.864.235-1.727.41-2.579.2-.978.482-1.94.693-2.916.368-1.7.7-3.413,1.067-5.114a27.825,27.825,0,0,0,.683-4.737c.049-1.162.034-2.327.024-3.49A22.715,22.715,0,0,0,46.071,8.884Z" transform="translate(-7.09 -3)"/>
    <path class="cls-1" d="M183.273,17.939l-.022-.08.579-.326a.817.817,0,0,0-.886-.458.655.655,0,0,1-.524-.123.478.478,0,0,0-.336-.2,4.222,4.222,0,0,1-.542-.2.969.969,0,0,0-.3-.116,11.844,11.844,0,0,0-2.121.032,15.413,15.413,0,0,0-2.558.737,13.182,13.182,0,0,1-2.842.911,1.069,1.069,0,0,0-.743.4,1.153,1.153,0,0,1-.781.447,7.821,7.821,0,0,0-.91.223c-.086.5.245.99-.178,1.348a.748.748,0,0,0,.058.143,1.522,1.522,0,0,0,.143.163,1.575,1.575,0,0,1,.5,1.758.86.86,0,0,0,.8,1.093,1.413,1.413,0,0,1,.97.318,10.4,10.4,0,0,1-2.59,2.858,3.8,3.8,0,0,1-2.149.686,1.3,1.3,0,0,1-1.392-1.118,10.319,10.319,0,0,1-.335-3.185,4.852,4.852,0,0,1,.483-2.437,26.669,26.669,0,0,1,1.6-2.331,21.557,21.557,0,0,1,3.809-3.652,10.154,10.154,0,0,0,2.229-2.289,1.975,1.975,0,0,0,.45-1.676.906.906,0,0,1,.09-.469,1.035,1.035,0,0,0-.3-1.184,3.052,3.052,0,0,0-2.951-.6,4.559,4.559,0,0,0-.572.178,9.468,9.468,0,0,0-2.867,1.267,7.276,7.276,0,0,0-.735.643c-.682.7-1.392,1.383-2.013,2.136-.807.98-1.538,2.022-2.3,3.036-.011.015-.053.006-.079.008l-.02-.284a13.448,13.448,0,0,0-1.537,2.84,14.526,14.526,0,0,0-.968,4.669,16.255,16.255,0,0,0,.081,1.629,6.662,6.662,0,0,0,.744,2.261,17.68,17.68,0,0,0,1.059,1.834c.095.157.227.3.469.083l-.342-.631.141-.075c.2.315.394.633.6.945a4.959,4.959,0,0,0,1.374,1.525,7.082,7.082,0,0,0,3.757,1.137c.09,0,.236.038.263,0,.24-.371.621-.16.928-.234a1.153,1.153,0,0,1,.637-.032.871.871,0,0,0,.681-.032c.449-.173.89-.367,1.333-.555a2.61,2.61,0,0,0,.81-.528c.508-.487,1.062-.924,1.625-1.405a1.857,1.857,0,0,1,.143.311c.126.529.232,1.063.367,1.59.051.2.031.479.317.516.328.042.376.265.451.524.108.375.271.733.415,1.111.514-.308.514-.308.9.05.195.182.409.156.609-.067a3.657,3.657,0,0,1,.368-.379c.226-.188.465-.359.775-.594.316,0,.364-.042.4-.423a1.5,1.5,0,0,0,.007-.164,27.937,27.937,0,0,0-.376-4.613A11.8,11.8,0,0,1,179.9,23.3a1.017,1.017,0,0,1,.751-.958c.69-.184,1.007-.846,1.61-1.182l-.706-.053c.052-.353.166-.581.508-.662a2.031,2.031,0,0,0,.53-.273c.233-.139.558-.222.4-.626-.018-.047.09-.145.141-.218s.154-.158.138-.2c-.105-.294.1-.4.29-.5a.66.66,0,0,0,.32-.755Z" transform="translate(-7.09 -3)"/>
    <path class="cls-1" d="M87.252,29.61a1.118,1.118,0,0,0-.08-.19c-.174-.269-.452-.515-.509-.8a5.293,5.293,0,0,0-.568-1.161,5.384,5.384,0,0,1-.245-.54,7.751,7.751,0,0,0-2.116-3.435c-.534-.491-1.1-.944-1.668-1.4-.405-.327-.83-.63-1.235-.936.382-.55.74-1.05,1.079-1.562.249-.376.475-.767.706-1.154a2.885,2.885,0,0,0,.51-1.306c.031-.544.059-1.087.078-1.631a2.528,2.528,0,0,0-.037-.543,8.67,8.67,0,0,0-1.622-3.875,7.7,7.7,0,0,0-4.051-2.7,5.344,5.344,0,0,1-1.2-.494,4.523,4.523,0,0,0-2.316-.467,2.337,2.337,0,0,0-.838.355,1.611,1.611,0,0,0-.847.806,6.122,6.122,0,0,0-.654,1.895c-.071.685-.2,1.363-.286,2.046q-.239,1.837-.463,3.676c-.249,2.019-.534,4.035-.724,6.06a16.972,16.972,0,0,0,.01,3.047c.1,1.173.336,2.334.522,3.5a1.723,1.723,0,0,0,.153.4c.064.146.13.291.207.43.066.119.147.23.221.345.112-.1.226-.2.336-.3a1.516,1.516,0,0,0,.114-.138l.245.2c.086-.07.164-.181.25-.189a.89.89,0,0,1,.33.108,4.556,4.556,0,0,0,.545-.758,20.844,20.844,0,0,0,.8-2.023c.315-.966.611-1.942.844-2.931a.865.865,0,0,1,.924-.771c.081.109.179.236.272.367.252.356.476.735.755,1.067a40.7,40.7,0,0,1,2.753,3.718,6.452,6.452,0,0,0,2.789,2.361,12.435,12.435,0,0,1,1.085.62c.2.116.38.293.587.232a3.036,3.036,0,0,0,.454-.577c.1-.219.189-.41.448-.382a2.228,2.228,0,0,1,.614.174,2.333,2.333,0,0,1,.351.255c.535.36.536.359,1-.081a.551.551,0,0,0,.065-.132l-.68-1.092C86.946,29.839,86.946,29.839,87.252,29.61ZM77.4,16.538c-.356.234-.718.458-1.1.7a.9.9,0,0,1-.05-.206c.091-1.245.2-2.49.271-3.736.023-.376.19-.562.612-.627a3.02,3.02,0,0,1,.8,1.793c.019.307.042.614.049.922A1.26,1.26,0,0,1,77.4,16.538Z" transform="translate(-7.09 -3)"/>
    <path class="cls-1" d="M116.85,27.864l-.732.352a2.809,2.809,0,0,0-.316-.239c-.475-.262-.96-.507-1.433-.774-.979-.552-1.943-1.13-2.931-1.666a11.488,11.488,0,0,0-3.147-1.184c-.493-.1-.977-.25-1.494-.384.014-.177.016-.319.037-.458.077-.5.182-1,.238-1.507.112-1.01.207-2.022.293-3.034a25.578,25.578,0,0,0,0-4.622,3.584,3.584,0,0,0-.161-.963c-.318-.806-.684-1.594-1.041-2.384a1.137,1.137,0,0,0-.242-.283c-.173-.179-.363-.343-.523-.533a.384.384,0,0,0-.471-.151,1.241,1.241,0,0,0-.754.5,8.916,8.916,0,0,0-.566,1.046,11.3,11.3,0,0,0-.65,2.749c-.147,1-.227,2.019-.362,3.026q-.479,3.562-.989,7.12a2.047,2.047,0,0,1-.223.531,4.91,4.91,0,0,0-.362.777,6.385,6.385,0,0,0-.152,1.078,2.4,2.4,0,0,0,1.014,2.42,2.3,2.3,0,0,1,1.029,1.36c.015.059.084.1.125.152.407-.245.411-.251.792-.028a1.084,1.084,0,0,0,1.217.133.441.441,0,0,1,.3.007c.975.279,1.947.57,2.922.848a13.5,13.5,0,0,0,4.406.592,5.361,5.361,0,0,0,.85-.165,12.673,12.673,0,0,1,1.7-.36,3.3,3.3,0,0,0,1.487-.593c-.319-.4-.77.018-1.1-.228a3.388,3.388,0,0,0,1.712-.635c-.05-.342-.049-.66.292-.863a.32.32,0,0,0,.105-.231c.013-.252,0-.5,0-.669Z" transform="translate(-7.09 -3)"/>
    <path class="cls-1" d="M101.294,22.131c.064-.567.074-1.141.155-1.706.123-.854.311-1.7.426-2.553.1-.733.135-1.474.208-2.31-.061-.562-.123-1.214-.206-1.864a2.126,2.126,0,0,0-.175-.629,12.556,12.556,0,0,0-.666-1.267A2.487,2.487,0,0,0,99.7,10.783,1.037,1.037,0,0,1,98.962,10a2.069,2.069,0,0,0-1.584-1.566,4.97,4.97,0,0,0-2.807.189,8.257,8.257,0,0,0-2.4,1.5,15.657,15.657,0,0,0-2.519,2.755c-.784,1.111-1.538,2.248-2.228,3.418-.5.852-.885,1.772-1.31,2.667a4.952,4.952,0,0,0-.308.815c-.134.491-.247.988-.351,1.486a10.071,10.071,0,0,0-.234,1.355,7.32,7.32,0,0,0,.259,2.527,5.9,5.9,0,0,0,.479,1.226,21.42,21.42,0,0,0,1.153,1.845A8.2,8.2,0,0,0,90.3,31.234a6.079,6.079,0,0,0,2.156.6A7.826,7.826,0,0,0,96.06,31.1a6.526,6.526,0,0,0,3.278-3.027c.381-.72.713-1.466,1.04-2.212a10.711,10.711,0,0,0,.458-1.292,11.9,11.9,0,0,0,.257-1.169C101.171,22.981,101.246,22.557,101.294,22.131Zm-5.509-6.574-.074.08-.852-.826C95.2,15.021,95.7,15.056,95.786,15.557Zm-.071,5.091a9.156,9.156,0,0,1-.4,1.432,10.971,10.971,0,0,1-.637,1.643A2.8,2.8,0,0,1,93.6,24.889a.277.277,0,0,1-.227-.044,2.828,2.828,0,0,1-1.143-1.5,2.093,2.093,0,0,1,0-1.357c.1-.305.078-.645.157-.959a14.362,14.362,0,0,1,.492-1.673c.251-.65.564-1.278.871-1.906a8.207,8.207,0,0,1,.526-.888.349.349,0,0,1,.573-.056,10.853,10.853,0,0,1,.842.843,1.021,1.021,0,0,1,.193.513,5.622,5.622,0,0,1,.008.735l.038,0C95.862,19.283,95.826,19.971,95.715,20.648Z" transform="translate(-7.09 -3)"/>
    <path class="cls-1" d="M243.3,10.929c-.1-.5-.187-1.012-.3-1.512a1.951,1.951,0,0,0-.257-.625,6.873,6.873,0,0,0-.562-.662c-.222.236-.311.253-.538-.009a6.764,6.764,0,0,1-.43-.648c-.069-.1-.177-.285-.23-.273-.328.077-.365-.169-.469-.36s-.223-.383-.346-.567a.37.37,0,0,0-.555-.039c-.205.208-.423.4-.667.636.007.012.017.03.027.049a2.6,2.6,0,0,1,.449,1.541.584.584,0,0,1-.116.227c-.084.124-.227.229-.259.363-.125.515-.219,1.037-.32,1.558q-.167.859-.325,1.719c-.051.277-.089.556-.148.831a11.2,11.2,0,0,0-.281,1.254c-.079.82-.115,1.645-.139,2.469-.022.753,0,1.508-.011,2.262a3.072,3.072,0,0,1-.129.595l-.123.011c-.094-.148-.185-.3-.283-.443-.648-.964-1.3-1.922-1.943-2.89-.423-.638-.821-1.292-1.239-1.934-.329-.505-.7-.987-1-1.507-.4-.7-.721-1.445-1.146-2.126-.756-1.213-1.563-2.394-2.359-3.582a.426.426,0,0,0-.3-.166c-.759-.014-1.521-.041-2.278,0a1.5,1.5,0,0,0-1.467.973,5.15,5.15,0,0,0-.293.821,6.8,6.8,0,0,0-.177,1.591c.057.887.256,1.765.336,2.651.1,1.1.138,2.2.2,3.3.045.8.078,1.606.132,2.408a13.2,13.2,0,0,0,.149,1.319c.125.732.286,1.458.419,2.189.12.659.2,1.326.34,1.98a6.782,6.782,0,0,1,.224,2.319,2.515,2.515,0,0,0,.54,1.772,2.175,2.175,0,0,1,.379,1.356,1.615,1.615,0,0,0,.158.487l.151,0c-.177-.316-.257-.6.2-.713l-.146.553.108.061c.026-.043.05-.089.079-.13a6.308,6.308,0,0,1,.551-.747.557.557,0,0,1,.86.063c.1.116.176.248.325.463.079-.918.772-1.5.842-2.341.013-.153.115-.3.118-.451.022-1.1.04-2.208.039-3.312,0-1.171-.022-2.342-.034-3.513a.78.78,0,0,1,.008-.222c.019-.064.069-.163.113-.167a.272.272,0,0,1,.222.083c.174.279.33.569.488.857.393.716.776,1.439,1.178,2.15.363.641.75,1.268,1.119,1.905.41.707.778,1.441,1.226,2.124.517.789,1.088,1.544,1.66,2.3.414.543.869,1.054,1.3,1.58.135.163.252.342.4.492.237.243.491.468.759.721.11-.294.214-.531.286-.778a4.367,4.367,0,0,0,.092-.567c.015-.1-.006-.238.048-.277a.431.431,0,0,1,.3-.013,1.832,1.832,0,0,1,1.07.755c.187-.288.476-.535.5-.808a8.043,8.043,0,0,0,.223-2.507,10.186,10.186,0,0,1-.129-1.192,5.221,5.221,0,0,1-.035-.687,5.882,5.882,0,0,1,.094-.623c.062-.413.113-.828.187-1.238.122-.673.258-1.343.389-2.014.07-.359.142-.717.213-1.076.078-.4.17-.792.231-1.191.1-.633.195-1.267.256-1.9.083-.864.181-1.732.182-2.6,0-1.4-.073-2.805-.116-4.208A.978.978,0,0,0,243.3,10.929Zm-11.7,4.336a1.159,1.159,0,0,1-.316-.2,1.051,1.051,0,0,1-.118-.341,1.016,1.016,0,0,1,.356.131.987.987,0,0,1,.159.339Z" transform="translate(-7.09 -3)"/>
    <path class="cls-1" d="M250.413,11.019c0-.032,0-.064,0-.1-.008-.191.084-.282.272-.251.213.035.426.076.635.128.272.068.54.15.811.223s.558.156.84.219.554.091.827.154c.58.134,1.155.284,1.735.419.233.054.469.1.706.13.553.076,1.117.1,1.658.221a5.45,5.45,0,0,0,3.734-.613,7.145,7.145,0,0,0,1.164-.9.369.369,0,0,0,.082-.507A3.823,3.823,0,0,0,261.462,8.7a7.733,7.733,0,0,0-2.295-1.173,17.48,17.48,0,0,0-1.942-.543,24.749,24.749,0,0,0-2.871-.261c-.815-.031-1.634.033-2.45.062a3.22,3.22,0,0,0-.472.068c-.647.121-1.289.266-1.94.362-.526.078-1.062.092-1.592.147a1.545,1.545,0,0,0-.414.119c-.347.142-.68.329-1.038.435a2.526,2.526,0,0,0-1.142.762,1.342,1.342,0,0,0-.312.7,6.234,6.234,0,0,0-.006,1.168.53.53,0,0,0,.17.382c.308.186.282.442.225.721-.046.225-.118.447-.144.675-.057.512-.086,1.028-.14,1.54-.038.365-.1.728-.15,1.092-.1.71-.207,1.419-.284,2.132-.049.453-.045.911-.066,1.366a10.669,10.669,0,0,0-.05,1.206c.064.937.163,1.872.259,2.806.047.456.117.91.184,1.363.04.268.09.533.141.8.092.481.193.96.279,1.442.048.269.079.542.106.814a1.557,1.557,0,0,1-.234,1.35.851.851,0,0,0-.171.83c.03.107.165.2.164.3a1.349,1.349,0,0,0,.617,1.075.548.548,0,0,0,.5.17c.283-.063.556-.175.836-.254a3,3,0,0,1,.751-.178,12.491,12.491,0,0,0,4.188-.441c.59-.212,1.222-.309,1.832-.466.208-.054.408-.138.614-.2.405-.126.814-.24,1.217-.371.442-.143.891-.276,1.317-.46a2.568,2.568,0,0,1,.86-.257,3.011,3.011,0,0,0,.75-.268,2.044,2.044,0,0,1,.5-.156c.3-.025.61-.007,1-.007a5.95,5.95,0,0,0-.386-.51,1.027,1.027,0,0,0-.4-.308c-.535-.154-1.077-.282-1.622-.4-.778-.161-1.557-.318-2.341-.442-.6-.095-1.226-.081-1.819-.212a10.792,10.792,0,0,0-3.159.037,4.689,4.689,0,0,0-.925.189c-.388.109-.766.252-1.149.376-.231.075-.4.026-.344-.257.086-.447.2-.888.3-1.332.133-.586.264-1.173.4-1.758.075-.324.165-.646.235-.971.078-.363.141-.73.212-1.1a8.163,8.163,0,0,1,.179-.852.344.344,0,0,1,.273-.19c.306.046.605.141.906.218.47.12.937.255,1.412.358.389.084.786.134,1.18.19a16.105,16.105,0,0,0,1.774.233,10.726,10.726,0,0,0,3.333-.245c.479-.137.964-.261,1.431-.433a4.553,4.553,0,0,0,1-.5,5.169,5.169,0,0,0,.827-.759.392.392,0,0,0-.023-.351,3.875,3.875,0,0,0-1.353-1.189,5.121,5.121,0,0,0-2.742-.779,26.655,26.655,0,0,0-3.918.1c-1.025.139-2.066.157-3.1.233-.281.021-.391-.11-.354-.392.075-.565.164-1.13.192-1.7C250.341,13.545,250.37,12.282,250.413,11.019Z" transform="translate(-7.09 -3)"/>
    <path class="cls-1" d="M200.411,16.987a10.239,10.239,0,0,0-2.279-2.461q-.772-.618-1.552-1.227c-.282-.22-.177-.372.036-.528.4-.3.825-.572,1.237-.859.7-.485,1.389-.982,2.1-1.454a4.008,4.008,0,0,1,2.41-.921.381.381,0,0,0,.231-.073,8.3,8.3,0,0,0,.845-.692,3.063,3.063,0,0,0,.844-1.939,3.552,3.552,0,0,0-.743-2.084.252.252,0,0,0-.149-.113,9.7,9.7,0,0,0-1.44-.257,4.076,4.076,0,0,0-1.57.1c-.475.165-.992.208-1.478.348-.542.157-1.073.356-1.6.549-.679.247-1.373.465-2.027.77a23.444,23.444,0,0,0-2.49,1.313,9.365,9.365,0,0,0-2.924,2.4,1.929,1.929,0,0,0,.176,2.151c.369.392.789.736,1.171,1.116.064.064.048.209.069.316a2.744,2.744,0,0,1-.4-.019c-.042-.008-.063-.1-.1-.15q-.45-.5-.907-1c-.02-.022-.072-.014-.211-.036a3.673,3.673,0,0,0,.224.45c.3.42.606.829.9,1.251.041.058.014.163.024.344l-.594-.638-.137.095a1.546,1.546,0,0,0,.158.3c.189.224.387.441.591.651.445.457.879.927,1.349,1.357s.983.835,1.486,1.239c.351.283.705.566,1.079.819a11.811,11.811,0,0,1,2.074,1.626,1.084,1.084,0,0,1,.088.865,4.6,4.6,0,0,1-.572.706q-1.145,1.027-2.327,2.014a29.492,29.492,0,0,0-2.936,2.641,18.46,18.46,0,0,0-1.829,2.45.766.766,0,0,0-.08.807.458.458,0,0,1,.044.274c-.07.357-.157.711-.243,1.091.063-.029.109-.068.154-.066.142,0,.283.025.425.039a3.358,3.358,0,0,1-.125.363c-.059.126-.14.242-.212.363l.037.063.7-.3.1.108-.323.689c.291,0,.552.011.811,0a1.8,1.8,0,0,0,.72-.1c.789-.424,1.561-.881,2.324-1.35.624-.384,1.239-.786,1.837-1.211a21.039,21.039,0,0,0,2.1-1.588c.778-.716,1.477-1.52,2.19-2.305a9.964,9.964,0,0,0,.828-1.079,4.787,4.787,0,0,0,.764-1.785,8.955,8.955,0,0,0,.253-1.381,5.213,5.213,0,0,0-.27-2.3A11.276,11.276,0,0,0,200.411,16.987Zm-5.809.435q-.611-.441-1.221-.882a15.331,15.331,0,0,1-1.265-.936,15.535,15.535,0,0,1-1.071-1.167c.232-.069.449-.207.595-.153.113.042.1.358.208.494a8.192,8.192,0,0,0,.94,1.009c.611.532,1.257,1.023,1.888,1.532Zm-4.708,13.247c.263-.3.081-.853.782-.912v.426h.4c.013,0,.03-.035.043,0C190.7,30.331,190.563,30.9,189.894,30.668Z" transform="translate(-7.09 -3)"/>
    <path class="cls-1" d="M275.9,23.664A4.15,4.15,0,0,0,275,22.1c-.355-.431-.752-.828-1.091-1.271a14.481,14.481,0,0,0-3.575-3.138,14.94,14.94,0,0,1-1.4-1.132.544.544,0,0,1-.16-.68,1.922,1.922,0,0,1,.367-.5,7.868,7.868,0,0,1,.632-.523,3.49,3.49,0,0,1,2.246-.867,1.274,1.274,0,0,0,.318-.008,6.811,6.811,0,0,0,2-.838c.251-.16.59-.253.671-.612a2.157,2.157,0,0,0-.968-2.258,6.078,6.078,0,0,0-3.093-.872,4.964,4.964,0,0,0-2.107.165,13.8,13.8,0,0,0-1.557.524c-.657.336-1.241.81-1.888,1.169a6.493,6.493,0,0,0-1.983,1.9,7.854,7.854,0,0,0-1.095,2.422,2.818,2.818,0,0,0-.056.911c0,.068.148.132.227.2l.058-.06.091.355a.786.786,0,0,1,.543.678,1.79,1.79,0,0,0,.054.845,3.3,3.3,0,0,0,1.64,1.422c.052.025.127,0,.189.009a8.9,8.9,0,0,1,1.08.182c.407.116.787.326,1.194.443a9.534,9.534,0,0,1,2.557,1.165c.085.055.2.186.18.253a.478.478,0,0,1-.24.248c-.252.135-.523.233-.775.368-.268.144-.506.4-.785.451a2.89,2.89,0,0,1-1.328-.017.936.936,0,0,0-1.1.306,7.027,7.027,0,0,1,.593.467c.077.074.088.216.13.328a1.094,1.094,0,0,1-.31.022c-.213-.046-.417-.133-.63-.176-.076-.015-.169.047-.254.074a.773.773,0,0,0,.118.223c.126.117.272.212.407.32.375.3.374.3.083.663.05.035.095.088.149.1a.3.3,0,0,1,.235.441,3.707,3.707,0,0,0-.142.721,1.486,1.486,0,0,0-.029.767,2.266,2.266,0,0,0,.285.874,2.311,2.311,0,0,0,2.376.818,14.39,14.39,0,0,1,2.766-.3,1.728,1.728,0,0,0,.757-.156,8,8,0,0,0,2.641-1.851A3.087,3.087,0,0,0,275.9,23.664ZM263.6,16.713a3.586,3.586,0,0,1-.135-.34l.136-.06.182.336A1.46,1.46,0,0,1,263.6,16.713Zm.951.91-.12.079-.446-.437.044-.112a1.313,1.313,0,0,1,.513.021C264.6,17.2,264.554,17.466,264.554,17.623Zm2.618,7.3a5.981,5.981,0,0,0,.63.173c.313.048.2.323.293.49A1.053,1.053,0,0,1,267.173,24.927Z" transform="translate(-7.09 -3)"/>
    <path class="cls-1" d="M214.845,12.4c.391-.064.789-.088,1.181-.148.268-.041.533-.108.8-.176a7.454,7.454,0,0,1,.9-.246c.576-.073,1.158-.1,1.738-.142.037,0,.071-.037.108-.058l-.091-.28.272-.147a2.078,2.078,0,0,1-.336-.08,2.559,2.559,0,0,0-1.149-.276,3.607,3.607,0,0,1-.861-.153c-.43-.09-.856-.195-1.287-.277-.337-.064-.682-.091-1.019-.157-.419-.083-.833-.2-1.251-.284-.285-.061-.574-.1-.863-.152q-.769-.126-1.54-.246a2.079,2.079,0,0,1-.285-.021,8.159,8.159,0,0,0-2.28-.288q-1.848-.031-3.7,0a6.141,6.141,0,0,0-1.145.17c-.316.066-.621.18-.932.27a3.14,3.14,0,0,0-1.53.882,1.6,1.6,0,0,0-.273,1.331,2.045,2.045,0,0,0,1.046.989,6.5,6.5,0,0,0,1.246.482c.956.108,1.924.119,2.888.141.284.006.36.084.356.363a23.691,23.691,0,0,1-.305,3.752,26.508,26.508,0,0,0-.263,2.8c-.051.773-.072,1.549-.073,2.323a18.147,18.147,0,0,0,.313,4.475c.068.271.118.548.193.817a9.729,9.729,0,0,0,.363,1.179c.251.595.552,1.169.829,1.752.026.054.112.113.132.169.034-.025.175-.05.175-.076v-.75a1.614,1.614,0,0,0,.343.324c.1.072.182.187.289.184.24-.006.329.1.39.308a1.931,1.931,0,0,0,.121.278c.261-.222.19-.5.208-.754a5.186,5.186,0,0,1,.038-.782c.145-.626.337-1.241.5-1.865.125-.494.228-.993.336-1.49.09-.417.179-.834.253-1.254s.129-.872.2-1.307c.07-.41.174-.814.229-1.225.085-.637.141-1.277.207-1.916.082-.786.2-1.571.235-2.36.044-.954.027-1.911.019-2.867-.007-.762-.051-1.524-.051-2.285a.449.449,0,0,1,.223-.349,6,6,0,0,1,.827-.145c.318-.056.634-.12.95-.182C213.963,12.572,214.4,12.472,214.845,12.4Z" transform="translate(-7.09 -3)"/>
    <path class="cls-1" d="M223.67,17.431c-.183-.517-.408-1.018-.609-1.529a1.015,1.015,0,0,0-.891-.593.372.372,0,0,1-.247-.22c-.075-.211-.075-.45-.156-.658a2.167,2.167,0,0,0-1.575-1.378,1.96,1.96,0,0,0-1.606.4c-.553.4-1.126.773-1.64,1.216a11.192,11.192,0,0,0-1.5,1.5,15.889,15.889,0,0,0-1.314,2.02,15.38,15.38,0,0,0-.786,1.722,5.767,5.767,0,0,0-.28.945,14.534,14.534,0,0,0-.286,1.507,13.355,13.355,0,0,0-.063,1.542,6.27,6.27,0,0,0,.1.8l.088,0,.123-.265.339.643-.075.048-.225-.167-.064.044a11.216,11.216,0,0,1,1.344,2.584l1.109.206a2.546,2.546,0,0,0,.165.4h-.718a1.45,1.45,0,0,0,1.521.431,2.8,2.8,0,0,1,.543-.067l.023.134c-.324.1-.529.539-.979.289a.186.186,0,0,0-.117.005,1.206,1.206,0,0,1-1.418-.606A4.376,4.376,0,0,0,214,27.8l-.085.052c.1.2.214.395.3.6a2.145,2.145,0,0,0,1.831,1.256,8.118,8.118,0,0,0,3.127-.48,2.582,2.582,0,0,0,.464-.165,7.264,7.264,0,0,0,2.257-1.568,12.728,12.728,0,0,0,1.226-1.539,6.746,6.746,0,0,0,.457-1.058,6.016,6.016,0,0,0,.482-2.481,17.854,17.854,0,0,0-.111-3.9A9.174,9.174,0,0,0,223.67,17.431Zm-4.322,4.254a9.791,9.791,0,0,1-.551,2.81,1.734,1.734,0,0,1-1.97,1.057.832.832,0,0,1-.728-.874c0-.245,0-.489,0-.734a4.479,4.479,0,0,1,.392-1.711c.167-.411.261-.855.45-1.255a10.045,10.045,0,0,1,1.284-2.32c.106-.124.159-.294.265-.417.066-.076.213-.168.277-.141a.522.522,0,0,1,.263.279,5.846,5.846,0,0,1,.316,1.108,8.651,8.651,0,0,1,.012,1.179A5.693,5.693,0,0,1,219.348,21.685Zm.988-3.143c-.146-.1-.223-.14-.293-.2a.753.753,0,0,1-.166-.162c-.092-.137-.158-.291-.259-.421-.149-.193-.158-.186.029-.451a1.876,1.876,0,0,1,.779.91C220.463,18.306,220.365,18.449,220.336,18.542Zm1.173,8.994-.125-.083.385-.6.151.1Zm.182-8.443c-.267-.339-.5-.7-.736-1.068a2.7,2.7,0,0,1-.178-.4l.047-.07a.67.67,0,0,1,.208.089,17.66,17.66,0,0,1,1.472,1.442,1.115,1.115,0,0,1,.2,1.014c-.2-.237-.359-.461-.552-.655C222.019,19.309,221.807,19.241,221.691,19.093Zm.946,2.293c-.415-.28-.407-.426.133-.87Z" transform="translate(-7.09 -3)"/>
  </g>
</svg>
