<svg id="Capa_1" data-name="Capa 1" xmlns="http://www.w3.org/2000/svg" viewBox="0 0 192.589 194.667">
  <defs>
    <style>
      .cls-1 {
        fill: #ececec;
      }

      .cls-2 {
        fill: #dd4031;
      }
    </style>
  </defs>
  <title>Whatsapp</title>
  <path class="cls-1" d="M102.916,5.644A94.885,94.885,0,0,0,8.032,100.529c0,26.008,13.769,49.255,13.769,49.255L5.213,200.311,57.2,183.7a96.186,96.186,0,0,0,45.713,11.718,94.885,94.885,0,1,0,0-189.77Z" transform="translate(-5.213 -5.644)"/>
  <path class="cls-2" d="M102.916,20.825a79.7,79.7,0,0,0-79.7,79.7c0,25.779,15.533,47.282,15.533,47.282l-9.724,29.014,29.969-9.779s19.529,13.186,43.926,13.186a79.7,79.7,0,1,0,0-159.407Zm44.417,116.722c-5.635,6.082-17.618,8.9-23.291,7.311s-24.433-6.494-36.667-17.9-22.142-23.418-26.2-32.275-3.828-14.111-3.6-16.588S59.1,64.139,66.784,59.22c0,0,2.564-1.625,3.9-1.625H78.16a4.249,4.249,0,0,1,2.925,2.437c.921,2.088,7.223,16.9,7.692,18.039s1.692,3.968-.271,6.5-6.067,7.258-6.067,7.258a2.923,2.923,0,0,0-.217,3.792,75.882,75.882,0,0,0,12.839,15.818c6.477,5.8,14.41,10.075,18.363,11.375s4.821-.433,6.337-2.383,6.23-7.908,6.23-7.908,1.625-2.383,4.821-.921,18.742,8.992,18.742,8.992a2.526,2.526,0,0,1,2,2.438C151.666,125.144,152.968,131.465,147.333,137.547Z" transform="translate(-5.213 -5.644)"/>
</svg>
