<svg id="Capa_1" data-name="Capa 1" xmlns="http://www.w3.org/2000/svg" viewBox="0 0 66.915 65.376">
  <defs>
    <style>
      .cls-1 {
        fill: #2a5699;
      }

      .cls-2 {
        fill: #fff;
      }
    </style>
  </defs>
  <title>wordico</title>
  <g id="g3103">
    <path id="path6" class="cls-1" d="M34.972,0h4.546V6.082c8.134.046,16.26-.084,24.387.046a2.618,2.618,0,0,1,2.934,2.9c.129,14.976-.03,29.959.076,44.935-.076,1.536.152,3.238-.737,4.6-1.11.791-2.547.692-3.839.753-7.609-.038-15.211-.023-22.821-.023v6.082H34.767C23.2,63.263,11.6,61.325,0,59.295q-.011-26.6,0-53.2C11.657,4.059,23.318,2.075,34.972,0Z" transform="translate(0)"/>
    <path id="path46" class="cls-2" d="M39.518,8.362H64.6V57.014H39.518V50.933H59.283V47.892H39.518v-3.8H59.283V41.05H39.518v-3.8H59.283V34.209H39.518v-3.8H59.283V27.367H39.518v-3.8H59.283V20.525H39.518v-3.8H59.283V13.683H39.518Z" transform="translate(0)"/>
    <path id="path88" class="cls-2" d="M15.709,21.795c1.444-.084,2.889-.144,4.333-.22,1.011,5.131,2.045,10.255,3.14,15.363.859-5.276,1.809-10.536,2.729-15.8,1.52-.053,3.041-.137,4.554-.228-1.718,7.366-3.223,14.793-5.1,22.114-1.27.661-3.17-.03-4.675.076-1.011-5.032-2.189-10.035-3.094-15.09-.889,4.911-2.045,9.776-3.064,14.656q-2.189-.114-4.394-.266c-1.262-6.69-2.744-13.334-3.923-20.039,1.3-.061,2.607-.114,3.907-.16.783,4.842,1.672,9.662,2.357,14.512C13.55,31.738,14.645,26.766,15.709,21.795Z" transform="translate(0)"/>
  </g>
</svg>
