<svg id="Capa_1" data-name="Capa 1" xmlns="http://www.w3.org/2000/svg" viewBox="0 0 66.92 65.376">
  <defs>
    <style>
      .cls-1 {
        fill: #207245;
      }

      .cls-2 {
        fill: #fff;
      }
    </style>
  </defs>
  <title>xcelico</title>
  <g>
    <path id="path10" class="cls-1" d="M35,0h4.516V6.082c7.61,0,15.219.015,22.829-.023,1.285.053,2.7-.038,3.816.73.783,1.125.692,2.554.745,3.847q-.057,19.8-.015,39.575a34.707,34.707,0,0,1-.258,6.652c-.3,1.581-2.2,1.619-3.474,1.672-7.876.023-15.759-.015-23.642,0v6.842H34.794C23.209,63.271,11.6,61.325,0,59.295V6.089C11.669,4.059,23.338,2.06,35,0Z"/>
    <path id="path48" class="cls-2" d="M39.515,8.362H64.6V56.254H39.515V51.693H45.6V46.372H39.515V43.331H45.6V38.01H39.515V34.969H45.6V29.647H39.515V26.607H45.6V21.285H39.515V18.245H45.6V12.923H39.515Z"/>
    <path id="path58" class="cls-1" d="M48.637,12.923H59.28v5.321H48.637Z"/>
    <path id="path72" class="cls-2" d="M22.517,20.046q2.577-.182,5.169-.312-3.045,6.237-6.135,12.46c2.091,4.257,4.227,8.484,6.325,12.741-1.832-.106-3.657-.22-5.489-.35a89.73,89.73,0,0,1-3.793-9.548c-1.034,3.086-2.509,6-3.695,9.023-1.665-.023-3.33-.091-4.994-.16,1.954-3.824,3.839-7.678,5.853-11.479-1.71-3.915-3.588-7.754-5.352-11.646q2.509-.148,5.017-.289c1.133,2.972,2.372,5.907,3.307,8.955C19.735,26.211,21.232,23.171,22.517,20.046Z"/>
    <path id="path90" class="cls-1" d="M48.637,21.285H59.28v5.321H48.637Z"/>
    <path id="path108" class="cls-1" d="M48.637,29.647H59.28v5.321H48.637Z"/>
    <path id="path114" class="cls-1" d="M48.637,38.01H59.28v5.321H48.637Z"/>
    <path id="path120" class="cls-1" d="M48.637,46.372H59.28v5.321H48.637Z"/>
  </g>
</svg>
